<?xml version="1.0" encoding="UTF-8"?><svg id="Logo_Copy" xmlns="http://www.w3.org/2000/svg" xmlns:xlink="http://www.w3.org/1999/xlink" viewBox="0 0 499.07 218.81"><defs><style>.cls-1{stroke:url(#linear-gradient-3);}.cls-1,.cls-2{fill:none;stroke-miterlimit:10;}.cls-3{letter-spacing:-.02em;}.cls-4{fill:url(#linear-gradient);}.cls-5{letter-spacing:-.03em;}.cls-6{letter-spacing:0em;}.cls-6,.cls-7,.cls-8,.cls-9,.cls-10,.cls-11,.cls-12,.cls-13,.cls-14,.cls-15{fill:#fff;}.cls-16,.cls-17{fill:#f0f0f0;}.cls-18{fill:#0f145b;}.cls-8{letter-spacing:-.02em;}.cls-9{letter-spacing:1.07em;}.cls-17{font-family:MuseoModerno-Light, MuseoModerno;font-size:5px;font-variation-settings:'wght' 300;font-weight:300;}.cls-10{letter-spacing:0em;}.cls-11{letter-spacing:-.01em;}.cls-12{letter-spacing:-.01em;}.cls-2{stroke:#f0f0f0;stroke-width:.2px;}.cls-13{letter-spacing:-.02em;}.cls-19{fill:url(#linear-gradient-8);}.cls-20{fill:url(#linear-gradient-9);}.cls-21{fill:url(#linear-gradient-4);}.cls-22{fill:url(#linear-gradient-2);}.cls-23{fill:url(#linear-gradient-6);}.cls-24{fill:url(#linear-gradient-7);}.cls-25{fill:url(#linear-gradient-5);}.cls-26{fill:url(#radial-gradient);}.cls-27{font-family:Outfit-Medium, Outfit;font-size:10px;font-variation-settings:'wght' 500;font-weight:500;}.cls-28{fill:url(#linear-gradient-13);}.cls-29{fill:url(#linear-gradient-12);}.cls-30{fill:url(#linear-gradient-10);}.cls-31{fill:url(#linear-gradient-11);}.cls-14{letter-spacing:.73em;}.cls-15{letter-spacing:3.4em;}</style><linearGradient id="linear-gradient" x1="135.55" y1="63.59" x2="171.49" y2="116.5" gradientTransform="translate(9.42 71.49) rotate(4.19)" gradientUnits="userSpaceOnUse"><stop offset="0" stop-color="#f99c1c" stop-opacity=".6"/><stop offset=".14" stop-color="#f99c1c" stop-opacity=".56"/><stop offset=".38" stop-color="#f99c1c" stop-opacity=".46"/><stop offset=".68" stop-color="#f99c1d" stop-opacity=".3"/><stop offset="1" stop-color="#f99d1e" stop-opacity=".1"/></linearGradient><linearGradient id="linear-gradient-2" x1="740.66" y1="313.74" x2="764.1" y2="340.76" gradientTransform="translate(-469.61 228.9) rotate(-21.48) scale(.73 .47)" gradientUnits="userSpaceOnUse"><stop offset="0" stop-color="#f99c1c" stop-opacity=".6"/><stop offset=".48" stop-color="#f99c1c" stop-opacity=".59"/><stop offset=".65" stop-color="#f99c1c" stop-opacity=".57"/><stop offset=".77" stop-color="#f99c1c" stop-opacity=".52"/><stop offset=".87" stop-color="#f99c1d" stop-opacity=".45"/><stop offset=".95" stop-color="#f99c1d" stop-opacity=".36"/><stop offset="1" stop-color="#f99d1e" stop-opacity=".3"/></linearGradient><linearGradient id="linear-gradient-3" x1="136.61" y1="98.22" x2="213.57" y2="98.22" gradientUnits="userSpaceOnUse"><stop offset="0" stop-color="#f99c1c"/><stop offset=".43" stop-color="#f99c1c" stop-opacity=".99"/><stop offset=".58" stop-color="#f99c1c" stop-opacity=".97"/><stop offset=".69" stop-color="#f99c1c" stop-opacity=".92"/><stop offset=".78" stop-color="#f99c1c" stop-opacity=".85"/><stop offset=".86" stop-color="#f99c1c" stop-opacity=".76"/><stop offset=".93" stop-color="#f99c1d" stop-opacity=".65"/><stop offset=".99" stop-color="#f99c1d" stop-opacity=".53"/><stop offset="1" stop-color="#f99d1e" stop-opacity=".5"/></linearGradient><linearGradient id="linear-gradient-4" x1="195.42" y1="110.54" x2="213.81" y2="110.54" gradientUnits="userSpaceOnUse"><stop offset="0" stop-color="#f99c1c" stop-opacity=".55"/><stop offset=".59" stop-color="#f99c1c" stop-opacity=".54"/><stop offset=".81" stop-color="#f99c1c" stop-opacity=".52"/><stop offset=".96" stop-color="#f99c1d" stop-opacity=".47"/><stop offset="1" stop-color="#f99d1e" stop-opacity=".45"/></linearGradient><linearGradient id="linear-gradient-5" x1="195.24" y1="108.34" x2="199.89" y2="108.34" gradientUnits="userSpaceOnUse"><stop offset="0" stop-color="#f99c1c" stop-opacity=".55"/><stop offset=".68" stop-color="#f99c1c" stop-opacity=".54"/><stop offset=".93" stop-color="#f99c1d" stop-opacity=".52"/><stop offset="1" stop-color="#f99d1e" stop-opacity=".5"/></linearGradient><linearGradient id="linear-gradient-6" x1="174.93" y1="110.56" x2="195.5" y2="110.56" gradientUnits="userSpaceOnUse"><stop offset="0" stop-color="#f99c1c" stop-opacity=".7"/><stop offset=".55" stop-color="#f99c1c" stop-opacity=".69"/><stop offset=".74" stop-color="#f99c1c" stop-opacity=".67"/><stop offset=".88" stop-color="#f99c1d" stop-opacity=".62"/><stop offset="1" stop-color="#f99c1d" stop-opacity=".55"/><stop offset="1" stop-color="#f99d1e" stop-opacity=".55"/></linearGradient><linearGradient id="linear-gradient-7" x1="136.6" y1="110.55" x2="146.5" y2="110.55" gradientUnits="userSpaceOnUse"><stop offset="0" stop-color="#f99c1c"/><stop offset=".59" stop-color="#f99c1c" stop-opacity=".99"/><stop offset=".81" stop-color="#f99c1c" stop-opacity=".97"/><stop offset=".96" stop-color="#f99c1d" stop-opacity=".92"/><stop offset="1" stop-color="#f99d1e" stop-opacity=".9"/></linearGradient><linearGradient id="linear-gradient-8" x1="152.98" y1="110.56" x2="168.06" y2="110.56" gradientUnits="userSpaceOnUse"><stop offset="0" stop-color="#f99c1c" stop-opacity=".85"/><stop offset=".59" stop-color="#f99c1c" stop-opacity=".84"/><stop offset=".81" stop-color="#f99c1c" stop-opacity=".82"/><stop offset=".96" stop-color="#f99c1d" stop-opacity=".77"/><stop offset="1" stop-color="#f99c1e" stop-opacity=".75"/></linearGradient><linearGradient id="linear-gradient-9" x1="150.31" y1="115.51" x2="156.71" y2="115.51" gradientUnits="userSpaceOnUse"><stop offset="0" stop-color="#f99c1c" stop-opacity=".9"/><stop offset=".59" stop-color="#f99c1c" stop-opacity=".89"/><stop offset=".81" stop-color="#f99c1c" stop-opacity=".87"/><stop offset=".96" stop-color="#f99c1d" stop-opacity=".82"/><stop offset="1" stop-color="#f99c1e" stop-opacity=".8"/></linearGradient><linearGradient id="linear-gradient-10" y1="108.56" x2="154.43" y2="108.56" xlink:href="#linear-gradient-9"/><linearGradient id="linear-gradient-11" x1="169.8" y1="109.44" x2="173.35" y2="109.44" gradientUnits="userSpaceOnUse"><stop offset="0" stop-color="#f99c1c" stop-opacity=".7"/><stop offset="1" stop-color="#f99d1e" stop-opacity=".7"/></linearGradient><linearGradient id="linear-gradient-12" x1="168.09" y1="116.27" x2="175.02" y2="116.27" gradientUnits="userSpaceOnUse"><stop offset="0" stop-color="#f99c1c" stop-opacity=".75"/><stop offset=".68" stop-color="#f99c1c" stop-opacity=".74"/><stop offset=".93" stop-color="#f99c1d" stop-opacity=".72"/><stop offset="1" stop-color="#f99d1e" stop-opacity=".7"/></linearGradient><linearGradient id="linear-gradient-13" x1="-.03" y1="57.51" x2="394.69" y2="57.51" gradientUnits="userSpaceOnUse"><stop offset="0" stop-color="#f99c1c"/><stop offset=".09" stop-color="#f99c1c" stop-opacity=".96"/><stop offset=".25" stop-color="#f99c1c" stop-opacity=".86"/><stop offset=".44" stop-color="#f99c1c" stop-opacity=".7"/><stop offset=".67" stop-color="#f99c1d" stop-opacity=".47"/><stop offset=".93" stop-color="#f99c1d" stop-opacity=".19"/><stop offset="1" stop-color="#f99d1e" stop-opacity=".1"/></linearGradient><radialGradient id="radial-gradient" cx="49.18" cy="39.51" fx="39.73" fy="28.56" r="14.47" gradientTransform="translate(95.01 84.75) rotate(-175.59) scale(1 1.05)" gradientUnits="userSpaceOnUse"><stop offset=".29" stop-color="#f99c1c"/><stop offset=".36" stop-color="#f99c1c" stop-opacity=".97"/><stop offset=".46" stop-color="#f99c1c" stop-opacity=".9"/><stop offset=".58" stop-color="#f99c1c" stop-opacity=".77"/><stop offset=".71" stop-color="#f99c1c" stop-opacity=".59"/><stop offset=".85" stop-color="#f99c1d" stop-opacity=".37"/><stop offset="1" stop-color="#f99d1e" stop-opacity=".1"/></radialGradient></defs><text class="cls-27" transform="translate(-287 17.3)"><tspan class="cls-18" x="0" y="0">Home</tspan><tspan class="cls-14" x="26.7" y="0">	</tspan><tspan class="cls-15" x="36" y="0">	</tspan><tspan class="cls-7" x="72" y="0">IMD </tspan><tspan class="cls-8" x="92.49" y="0">P</tspan><tspan class="cls-7" x="98.29" y="0">o</tspan><tspan class="cls-13" x="103.92" y="0">rt</tspan><tspan class="cls-8" x="111.63" y="0">f</tspan><tspan class="cls-7" x="115.42" y="0">olio</tspan><tspan class="cls-9" x="131.34" y="0">	</tspan><tspan class="cls-15" x="144" y="0">	</tspan><tspan class="cls-7" x="180" y="0">About + </tspan><tspan class="cls-11" x="216.87" y="0">C</tspan><tspan class="cls-7" x="223.56" y="0">o</tspan><tspan class="cls-6" x="229.19" y="0">n</tspan><tspan class="cls-12" x="234.64" y="0">t</tspan><tspan class="cls-7" x="238.28" y="0">a</tspan><tspan class="cls-10" x="244.08" y="0">c</tspan><tspan class="cls-7" x="248.87" y="0">t</tspan></text><g><polyline class="cls-2" points="51.56 157.98 66.86 156.59 51.56 157.98"/><polyline class="cls-2" points="51.56 89.57 66.86 90.92 51.56 89.57"/><path class="cls-4" d="m125.96,164l31.1-4.01c-3.46-.26-6.28-.52-14.26-.59-8.21-.07-10.8.19-11.4.23-2.47.14-7.83.54-11.72,1.73-3.07.94-4.25,1.8-4.14,2.76.15,1.31,2.8,2.98,6.14,4.49,3.55,1.61,8.39,2.84,14.62,3.69,5.25.72,20.53,1.49,28.63-.01,8.13-1.51,9.6-2.4,10.94-3.86,1.22-1.33.79-2.92-.87-4.27,0,0,19.85-.11,26.62-.35,9.75,3.26,15.42,6.98,15.93,10.68.33,2.42.03,8.16-15.6,12.02-26.35,6.51-55.37,5.53-76.84.91-16.1-3.46-27.14-9.75-29.58-14.08-1.66-2.95-1-4.86-.89-5.26.19-.73,1-2.19,2.75-3.56,2.49-1.95,6.12-2.98,10.66-4.05,7.33-1.73,13.79-2.44,17.82-2.57,4.62-.15,18.71.07,25.51.64l-26.49-1.95,12.9-1.97,37.84,4.91-36.38,8.92-13.29-4.41Z"/><path class="cls-22" d="m97.6,165.62c-3.78-1.1-7.1-1.03-8.88-.69-1.17.22-1.78.52-2.57.97,0,0-4.71,2.91,1.56,7.67,11.51,8.75,27.04-2.96,9.9-7.96Z"/><path class="cls-16" d="m136.6,117.56v-23.69l-49.7-14.23-20.04,5.62v27.67l-15.31,2.07v-25.44l-14.71,4.13v61.22l14.71,3.07v-31.21l15.31,4.71v29.69l20.04,4.18,1.33-.31c-.41.07-.83.12-1.26.12-.02,0-.05,0-.07,0-3.88-.04-7.01-3.19-7.01-7.08s3.13-7.04,7.01-7.08c.02,0,.05,0,.07,0,3.91,0,7.08,3.17,7.08,7.08,0,3.23-2.16,5.95-5.12,6.8l36.04-8.36h0l6.18-24.82c-1.59,5.71-6.48,15.12-8.91,18.03-2.4,2.88-6.86,9.54-14.18,10.65-3.94.6-10.65-3.74-13.07-7-2.58-3.48-5.04-8.82-6.18-14.04-1.11-5.06-1.92-10.59-1.92-17.09,0-7.38,2.11-18.6,6.34-24.64,4.23-6.04,10.8-9.62,19.73-9.62,5.09,0,9.59,1.79,13.48,4.23,3.89,2.44,7.2,6.21,9.92,11.32-1.78,1.34-8.01,6.86-8.01,6.86-1.54-2.26-3.59-4.31-5.59-5.53-2.09-1.27-3.46-1.85-7.26-1.61-3.78.25-7.97,4.79-9.18,7.16-1.59,3.09-2.21,6.69-2.43,10.98-.17,3.35-.08,9.75,2.07,13.77,1.52,2.84,3.12,5.01,6.26,6.1,4.12,1.43,7.53-.88,8.95-2.07.34-.29,2.03-1.11,5.26-6.28,2.79-4.47,3.21-6.51,3.84-8.71l-18.96,5.52v-15.13l25.29,2.94Z"/><g><text class="cls-17" transform="translate(145.15 100.39)"><tspan x="0" y="0">We do </tspan><tspan class="cls-5" x="17.51" y="0">“</tspan><tspan x="19.18" y="0">outside-the-bo</tspan><tspan class="cls-3" x="55.26" y="0">x</tspan><tspan x="58.15" y="0">”</tspan></text><polyline class="cls-1" points="136.61 93.37 213.07 93.37 213.07 103.57"/><g><path class="cls-21" d="m213.18,110.48c-.42-.65-1-1.13-1.75-1.45-.75-.32-1.64-.47-2.67-.47h-2.17c-.22,0-.39-.07-.53-.22-.14-.15-.2-.33-.2-.54,0-.2.07-.37.2-.51.14-.15.31-.22.53-.22h5.98v-3.49h-6.9c-.83,0-1.59.2-2.27.59-.47.27-.85.64-1.19,1.04.48.44.88.94,1.2,1.53.54,1,.81,2.17.81,3.53,0,.26-.01.58-.04.95-.02.36-.06.65-.11.9.62.19,1.28.31,2.01.31h2.27c.14,0,.27.04.39.11.12.07.22.17.3.3.08.13.12.25.12.38,0,.15-.04.28-.11.41-.07.13-.17.23-.28.3-.12.07-.27.11-.45.11h-4.26v-1.88h-8.65c.07.37.23.69.49.95.26.26.58.46.97.58.39.12.83.19,1.32.19h4.55v3.65h6.43c.87,0,1.65-.2,2.34-.61.69-.41,1.25-.95,1.67-1.62.41-.68.62-1.42.62-2.23,0-1.07-.21-1.92-.62-2.57Z"/><path class="cls-25" d="m199.8,108.74c-.06-.22-.16-.43-.3-.62-.14-.19-.3-.36-.46-.49-.17-.13-.37-.24-.61-.32-.24-.08-.51-.12-.81-.12-.37,0-.7.06-.98.17-.28.11-.52.28-.71.49-.19.21-.35.46-.46.73-.11.27-.19.57-.23.89h4.66c0-.27-.03-.51-.09-.73Z"/><path class="cls-23" d="m195.5,103.59h-3.93l-3.03,10.19c-.03.05-.06.1-.09.14s-.08.06-.15.06c-.04,0-.08-.02-.11-.06-.03-.04-.06-.08-.09-.14l-3.05-10.19h-.13s-6.82,0-6.82,0v2.69h-3.17l1.09,2.97h2.09v4.9c0,1.05.3,1.88.91,2.48.6.6,1.44.91,2.5.91h3.41v-3.08l.41,1.16c.23.64.62,1.12,1.15,1.44.53.32,1.14.48,1.82.48s2.35-.02,2.35-.02c0,0,.41-1.25.64-1.88l.42-1.21,3.66-10.5.12-.34Zm-13.16.45c.3-.3.65-.45,1.07-.45s.76.15,1.06.45c.3.3.45.66.45,1.06s-.15.76-.45,1.07c-.05.05-.1.06-.15.1-.27.22-.56.35-.91.35s-.66-.13-.92-.35c-.05-.04-.1-.06-.15-.1-.3-.3-.45-.66-.45-1.07s.15-.76.45-1.06Zm2.57,10.39h0s-3.02.01-3.02.01v-.55s0-.02,0-.03v-4.61h0s0,0,0,0h3.02v5.18s0,0,0,0Z"/><path class="cls-24" d="m140.41,104.48c-2.89,1.47-3.81,4.22-3.81,7.07,0,3.5,2.94,5.98,5.71,5.98h4.19s0-3.83,0-3.83c-7.81,1.43-7.06-7.77,0-6.2v-3.9c-1.95-.03-4.45-.09-6.09.89Z"/><path class="cls-19" d="m165.69,104.43c-.99-.56-2.15-.83-3.49-.83h-3.4s-4.02,0-4.02,0h0s-1.79,0-1.79,0c.98,0,1.88.21,2.68.63.6.31,1.11.72,1.53,1.21.14.17.27.34.39.53.47.74.71,1.59.71,2.56,0,.86-.21,1.65-.62,2.35-.41.7-.95,1.28-1.61,1.73l.94,1.55c.08.12.17.21.27.27.1.06.24.09.41.09h1.14v3.02c.31,0,.64,0,.99,0h4.39s1.34-3.65,1.34-3.65h-2.76c-.49,0-.93-.06-1.32-.19-.39-.12-.71-.32-.97-.58s-.42-.58-.49-.95h6.17l1.92-5.22c-.03-.06-.05-.13-.08-.19-.54-1-1.3-1.77-2.29-2.33Zm-5.9,5.07c.03-.32.11-.61.23-.89.11-.27.27-.52.46-.73.19-.21.43-.37.71-.49.28-.11.61-.17.98-.17.3,0,.57.04.81.12.24.08.44.19.61.32.17.13.32.3.46.49.14.19.24.4.3.62.06.22.09.46.09.73h-4.66Z"/><path class="cls-20" d="m153.74,115.92l-1.41-2.43h-2.01v4.04h6.4c-.66,0-1.26-.15-1.77-.45-.52-.3-.92-.69-1.2-1.17Z"/><path class="cls-30" d="m153.49,110.23c.29-.15.51-.37.69-.66.17-.29.26-.63.26-1.03s-.09-.72-.26-1c-.17-.28-.4-.5-.68-.66-.28-.16-.58-.24-.92-.24h-2.27v3.81h2.27c.32,0,.62-.08.91-.23Z"/><path class="cls-31" d="m171.83,107.06c-.01-.07-.04-.11-.08-.14-.04-.03-.09-.04-.14-.04-.04,0-.08.01-.11.04-.03.03-.06.07-.09.14l-1.61,4.94h3.54l-1.52-4.94Z"/><polygon class="cls-29" points="168.94 115.01 168.09 117.53 175.02 117.53 174.21 115.01 168.94 115.01"/></g></g></g><g><path class="cls-28" d="m394.14,63.09c-.32-.34-.74-.59-1.17-.78-.21-.12-.44,0-.64.11-.2.12-.39.27-.56.43-.31.36-.78.59-1.22.74-.45.16-.92.29-1.39.38-.47.08-.95.17-1.44.07-.49-.09-.86-.47-1.21-.76-.18-.13-.43-.1-.67-.11l-.71.02c-.48.02-.95.05-1.43.09-.47.04-.95.09-1.42.15-.23.03-.48.06-.7.12-.21.07-.36.26-.47.47-.12.2-.17.43-.35.64-.25.16-.5.06-.73.06-.46-.05-.95.13-1.43,0-.45-.09-1-.06-1.36-.45-.18-.17-.26-.43-.49-.46-.22-.05-.46-.07-.7-.09-.24-.02-.47-.01-.73-.09-.21-.1-.44-.16-.67-.21-.23-.05-.47-.09-.69-.09-.06,0-.11,0-.16.02-.06.02-.14.04-.2.03-.13-.01-.25-.05-.36-.09-.46-.17-.86-.45-1.27-.66-.42-.21-.86-.41-1.3-.59-.48-.11-.85-.53-1.06-.96-.22-.39-.71-.56-1.14-.75-.46-.24-.7-.68-.99-1.06-.14-.19-.27-.39-.44-.55-.16-.18-.36-.14-.64-.17-.29-.09-.39-.34-.53-.53l-.38-.61c-.26-.4-.54-.78-.88-1.1-.34-.33-.74-.58-1.18-.74-.21-.09-.47-.12-.67-.29-.2-.16-.36-.34-.51-.52-.31-.37-.57-.77-.83-1.17l-.39-.6c-.13-.17-.27-.46-.4-.48-.11.04-.28.34-.51.44l-.63.34c-.41.22-.88.45-1.37.48-.23.04-.47.05-.62.21l-.52.49c-.09.08-.18.16-.28.23-.05.04-.1.07-.18.1-.11.03-.16,0-.22-.02-.22-.06-.45-.06-.67,0-3.62,1.01-7.95.45-10.72-2.14-.14-.46-.36-.89-.86-.83-.25.04-.56-.14-.68-.35-.15-.21-.23-.45-.29-.69-.05-.25-.06-.49-.09-.72,0-.24-.19-.27-.42-.34-.23-.06-.46-.1-.7-.21-.25-.13-.39-.31-.59-.35-.2-.04-.49-.05-.71-.21-.24-.14-.36-.42-.4-.67-.06-.45-.35-.82-.79-1-.22-.12-.43-.27-.59-.48-.17-.19-.23-.48-.33-.65-.11-.18-.29-.3-.51-.35-.19-.05-.5-.06-.71-.25-.38-.35-.64-.81-.65-1.34,0-.24,0-.48-.07-.66-.05-.1-.05-.07-.23-.14-.13-.06-.22-.15-.32-.23-.18-.18-.33-.37-.46-.58l-.09-.16s-.05-.06-.09-.09c-.08-.06-.18-.11-.29-.16-.21-.09-.43-.17-.66-.25-.12-.04-.22-.07-.36-.15-.14-.1-.19-.21-.25-.32l-.33-.63c-.06-.11-.12-.18-.19-.29-.08-.12-.12-.25-.14-.37-.05-.23-.03-.54-.08-.66,0,0,.02.01.01,0-.04,0-.08-.02-.12-.03-.07-.03-.12-.07-.18-.1-.1-.07-.19-.14-.28-.18-.43-.27-.4.42-.57.87-.05.16-.25.26-.37.27-.13.02-.26.02-.38.02l-.36-.03s-.09.09-.13.18c-.11.19-.21.41-.3.63-.06.12-.06.2-.19.36l-.11.28-.22.67-.11.34-.06.17c-.03.08-.1.16-.15.2-.23.16-.46.23-.7.29-.25.07-.51.04-.63.16-.15.12-.23.34-.36.57-.15.24-.44.38-.7.38-.45-.12-.61.51-1.03.76-.34.32-.47.75-.79,1.17-.15.2-.42.39-.68.4-.15.03-.34.22-.5.38-.16.16-.34.36-.55.48-.17.13-.32.31-.45.5-.32.82-1.07,1.77-2.06,1.95l-1.35.47-.67.24c-.19.06-.34.22-.49.39-.29.35-.54.76-.82,1.16-.14.2-.28.4-.46.58-.17.19-.48.35-.76.28-.27-.05-.48-.16-.69-.19-.2-.05-.43-.02-.64.04-.43.11-.77.42-1.07.77-.29.39-.66.73-1.04,1.02-.39.28-.79.59-1.29.72-.21.06-.36.18-.49.36l-.21.29c-.09.12-.2.19-.3.27-.42.28-.87.47-1.34.62-.24.07-.48.13-.76.12-.18-.02-.22-.04-.29-.02-.07.02-.15.09-.21.17-.27.34-.42.8-.67,1.24-.13.21-.29.44-.54.58-.25.14-.51.16-.73.2-.22.04-.4.12-.52.28-.12.16-.19.39-.3.62-.06.11-.13.23-.24.33-.05.05-.11.1-.17.13l-.1.05s-.03.02-.04.03c-.15.13-.31.32-.45.5l-.86,1.14c-.15.19-.29.38-.49.57-.32.28-.73-.06-.75-.01,0-.01-.15.1-.24.15-.1.07-.21.13-.33.19-.12.05-.26.1-.42.1-.08,0-.17-.02-.26-.09-.08-.06-.12-.13-.15-.19-.18-.43-.6-.51-1.06-.53-.45,0-1.01.02-1.47-.28-.47-.31-.64-.8-.98-1.06-.09-.08-.16-.11-.15-.09-.05.02-.18.12-.3.17-.25.12-.51.15-.76.17l-.71.02c-.11,0-.23.02-.32.04-.09.03-.11.04-.19.15-.16.22-.38.36-.51.52-.15.16-.25.34-.3.55-.04.12,0,.16-.08.38-.07.15-.16.23-.24.33-.17.19-.36.35-.55.5-.19.15-.39.29-.61.42-.11.06-.22.12-.36.17-.04.01-.11.02-.12.02.01,0,.03-.02.01,0-.02,0-.05.05-.08.09-.22.37-.37.83-.55,1.28l-.08.18s-.04.07-.07.12c-.17.13-.23.05-.26.06-.14-.04-.24-.09-.35-.13-.22-.08-.44-.16-.65-.2-.45-.01-.97-.13-1.43-.27-.24-.09-.46-.14-.71-.34-.05-.05-.09-.07-.09-.07.04,0-.05.01-.16-.01-.18-.06-.27-.15-.37-.22-.09-.07-.21-.2-.28-.33-.06-.14-.09-.28-.1-.4-.03-.25-.02-.49-.09-.65-.11-.3-.7-.26-1.12-.27-.26.03-.2,0-.34.32-.13.29-.44.45-.69.49-.13.03-.26.04-.4.04-.11,0-.31-.03-.32-.02-.1.01-.25.21-.33.41-.05.1-.09.21-.12.31-.04.13-.1.25-.17.36-.13.22-.29.42-.47.6-.18.18-.39.33-.63.45-.24.12-.48.18-.58.29-.08.05-.05.34-.13.6-.07.26-.21.49-.35.69-.14.2-.28.4-.46.59-.09.09-.19.19-.35.26-.08.04-.18.05-.23.05.04-.01,0,0-.04.04-.3.31-.59.72-.88,1.09-.15.19-.29.39-.55.56-.13.1-.39.1-.52.01-.14-.07-.23-.15-.33-.23-.17-.15-.33-.19-.57-.24-.22-.04-.48-.1-.66-.09-.07,0-.16.04-.27.09-.11.04-.17.09-.3.17-.14.08-.29.1-.4.12-.09.02-.14.05-.2.11-.05.06-.1.17-.19.29-.05.07-.09.16-.14.28-.06.1-.08.27-.34.38-.18.03-.12,0-.17.02-.03.01-.08.03-.12.05-.36.2-.6.62-.94.99-.08.09-.17.18-.27.27-.07.08-.29.2-.25.2-.1.14-.18.38-.26.6l-.21.68-.11.35c-.06.13-.02.21-.22.42-.33.17-.53.15-.79.19-.24.02-.48.04-.72.05l-.35.02c-.08,0-.19.04-.3.08-.23.06-.43.2-.79.17-.09,0-.22-.09-.27-.16l-.11-.12c-.08-.08-.16-.15-.24-.21-.17-.13-.36-.16-.62-.27-.44-.22-.9-.48-1.21-.89-.26-.24-.77-.4-1.19-.48-.12-.02-.2-.04-.25-.01l-.33.12c-.23.08-.46.16-.72.21-.07.01-.13.02-.2.02h-.15s-.11.05-.18.12c-.13.15-.26.36-.39.56-.13.2-.29.41-.46.59-.08.09-.17.18-.28.28-.09.09-.3.19-.47.17-.14-.01-.31-.06-.33-.06-.04,0-.08.02-.14.09-.06.07-.1.16-.19.29-.03.03-.04.07-.14.13-.09.04-.16.03-.2.03-.09-.01-.15-.03-.22-.05-.25-.09-.47-.21-.69-.38-.04-.03-.13-.13-.14-.12,0,0-.05-.03-.09-.04-.09-.03-.2-.06-.31-.08-.45-.09-.93-.13-1.4-.18-.24-.03-.46-.04-.74-.12-.28-.05-.56-.35-.64-.56-.1-.32-.71-.35-1.12-.67-.45-.29-.72-.78-1-1.06-.08-.07-.1-.08-.18-.09h-.35c-.25-.02-.45,0-.74-.02-.31-.05-.52-.18-.75-.33-.24-.15-.39-.48-.48-.63-.36-.3-.43-1.09-.54-1.24.03.02-.01,0-.09-.08-.04-.05-.06-.08-.08-.13-.03-.07-.06-.14-.07-.2-.04-.13-.07-.24-.09-.36l-.15-.7c-.05-.22-.1-.48-.17-.62.02-.04-.18-.06-.39.02-.21.07-.4.17-.62.29-.06.03-.14.07-.25.08-.12.02-.27-.05-.33-.12-.13-.13-.17-.21-.25-.3-.14-.16-.3-.29-.47-.35,0-.1-.27.11-.49.2-.24.09-.48.23-.87.12-.37-.2-.42-.48-.52-.72-.04-.12-.07-.25-.1-.37l-.04-.18s-.04-.17-.01-.1c.03.03-.09-.06-.17-.08-.09-.03-.19-.04-.3-.05-.14,0-.31-.03-.47-.16-.08-.06-.12-.14-.15-.19-.03-.04,0-.01-.01-.02l-.05-.03c-.17-.11-.39-.2-.6-.28-.21-.08-.43-.12-.65-.19-.27-.05-.52-.18-.73-.3-.43-.27-.8-.59-1.16-.92-.38-.36-.61-.73-1.01-.72-.21-.02-.48-.02-.58.03-.04.02-.08.07-.13.16-.06.13-.14.24-.22.34-.18.19-.31.42-.71.51.04-.02-.1.07-.16.14l-.25.25c-.17.15-.38.41-.76.42-.31,0-.55-.11-.78-.2l-.32-.13s-.07,0-.18.04c-.19.08-.39.21-.59.33-.21.12-.39.26-.68.37-.17.09-.5-.02-.58-.2-.1-.15-.13-.29-.16-.4,0-.02-.02-.05,0-.01.07.07,0,0-.01,0l-.15-.11c-.1-.07-.21-.16-.3-.25-.05-.05-.1-.1-.14-.15l-.09-.12s-.11-.07-.21-.09c-.2-.05-.44-.05-.72-.14-.14-.03-.33-.16-.41-.31-.09-.14-.13-.28-.16-.4l-.04-.15s-.02-.03,0,0c0,.02.13.07.13.05-.25,0-.31-.05-.45-.08l-.68-.21c-.25-.07-.34-.09-.56-.02-.21.07-.43.17-.66.25-.44.19-1.03.28-1.52.19-.25-.03-.49-.09-.72-.14-.17-.02-.06-.04-.15,0-.06.05-.14.13-.21.21l-.44.56c-.04.05-.08.1-.14.16-.03.03-.07.06-.14.1-.11.06-.26.01-.31-.03-.19-.15-.22-.25-.29-.36-.13-.21-.24-.42-.36-.56-.1-.08,0-.04-.1-.05-.08.01-.19.05-.29.08-.22.08-.41.19-.71.26-.06.03-.28,0-.35-.06-.08-.05-.12-.09-.17-.13l-.28-.24c-.18-.16-.35-.32-.53-.46-.08-.07-.18-.14-.23-.16-.03-.01.03,0,0,0h-.11c-.07-.01-.14-.02-.2-.04-.52-.09-.99-.41-1.36-.62-.19-.1-.42-.21-.57-.23-.03,0-.06,0-.03,0-.07.04-.18.07-.24.08-.14.03-.26.03-.39.04-.49.02-1,0-1.48-.08-.32-.03-.14-.09-.43.16-.21.17-.38.32-.68.44-.04.01-.09.03-.16.03-.11,0-.24-.06-.27-.11-.08-.08-.11-.15-.15-.21-.06-.12-.11-.24-.16-.35-.07-.19-.23-.52-.2-.43-.14-.03-.4,0-.63,0-.25,0-.48.07-.83-.07-.32-.16-.47-.45-.56-.7-.05-.13-.08-.26-.1-.39-.02-.1-.03-.13-.09-.2-.1-.12-.31-.21-.52-.33-.25-.15-.35-.2-.61-.27-.22-.07-.48-.13-.73-.3-.06-.04-.12-.1-.17-.14l-.12-.11c-.08-.07-.17-.13-.26-.18-.17-.11-.39-.18-.51-.16-.34.06-.65-.13-.85-.27-.43-.33-.69-.66-1.1-.83-.1-.04-.2-.08-.29-.11-.05-.01-.09-.02-.14-.03-.09-.01-.14-.03-.21-.05-.24-.07-.47-.14-.7-.22-.23-.08-.46-.17-.69-.27-.12-.05-.23-.1-.35-.18-.11-.07-.13-.07-.17-.07-.07,0-.24.14-.36.32-.17.23-.37.39-.56.54-.2.15-.39.3-.62.43-.13.06-.18.14-.46.18.12-.02.06-.02.04.01-.03.03-.06.07-.09.11-.12.17-.23.38-.34.59-.13.22-.16.38-.34.67-.63.79-1.27,1.46-2.03,2.12-.05.04-.11.08-.17.12-.03.03-.26.12-.17.09-.02.01-.11.1-.17.18-.14.17-.27.37-.4.57l-.42.6c-.16.2-.28.4-.59.59-.11.05-.18.11-.18.11,0-.03-.01.09-.03.24-.04.28-.17.56-.32.77-.32.43-.6.76-1.11,1.1-.06-.03-.12.2-.18.43l-.17.7c-.16.53-.46.96-.83,1.32-.09.09-.2.18-.31.26-.06.04-.12.08-.19.11-.04.02-.07.03-.13.05-.07.02-.07.02-.04.01.03-.03-.06.07-.09.15-.05.09-.09.2-.14.3-.09.22-.17.44-.3.69-.07.11-.14.28-.39.38-.24.09-.46-.02-.58-.09-.25-.17-.4-.32-.58-.44-.09-.06-.17-.1-.27-.15-.05-.02-.1-.04-.12-.05-.01,0,0,0,.02,0,.04,0,.1-.05.1-.05,0-.01-.07.17-.13.28-.06.12-.15.25-.21.33-.15.19-.17.35-.43.65-.08.08-.23.14-.33.14-.07,0-.08,0-.13.02-.08.02-.16.06-.25.12-.19.1-.3.28-.66.42-.35.11-.67-.02-.89-.12-.12-.06-.21-.08-.38-.23-.14-.13-.21-.28-.26-.42-.09-.28-.11-.54-.12-.79v-.17s.12.23.07.14l-.05-.03c-.08-.04-.19-.08-.29-.12-.08-.03-.26-.05-.16-.05-.2.06-.29.05-.43.07-.26.01-.48.04-.8-.01-.48-.15-.9-.23-1.35-.24-.11,0-.21,0-.31.02-.13.02-.27.04-.45,0-.21-.01-.43-.27-.46-.39-.05-.11-.09-.19-.12-.21-.08-.07-.31-.15-.52-.19l-.35-.07c-.08-.02-.09,0-.25-.08-.13-.08-.16-.14-.21-.2-.31-.42-.52-.85-.81-1.03-.48-.25-.83-.7-1.07-1.14-.16-.32-.59-.64-.92-.94-.18-.15-.36-.29-.55-.42-.13-.08-.47-.25-.63-.46-.18-.2-.33-.42-.44-.68-.05-.13-.1-.27-.11-.43,0-.19,0-.24-.01-.26,0,0,.03.03,0,0-.03-.02-.11-.06-.18-.11-.17-.15-.18-.2-.27-.26-.16-.14-.35-.27-.54-.39-.18-.11-.42-.25-.52-.25-.49-.12-.57-.41-.73-.6l-.18-.31c-.04-.07-.07-.08-.1-.09-.02,0-.04,0-.09,0h-.1c-.06-.02-.05.07-.3-.11-.13-.18-.1-.22-.13-.3l-.04-.19c-.04-.24-.07-.48-.12-.68l-.03-.09s.06.08.17.09c-.14-.02-.2-.07-.24-.09-.15-.11-.22-.2-.31-.3-.64-.69-1.19-1.7-1.95-1.21-.25.07-.49.12-.73.16-.28.04-.41.05-.5.15-.09.07-.22.42-.58.58-.24.1-.46.18-.63.27-.09.06-.12.07-.19.16-.15.16-.27.21-.39.27-.25.12-.49.19-.75.24-.12.03-.3.04-.4.04-.08,0-.19.03-.3.05-.21.05-.43.12-.64.21-.1.04-.2.09-.29.14-.05.03-.06.03-.11.08-.07.06-.16.11-.26.13-.39.1-.68-.06-.91-.17-.27-.15-.37-.25-.57-.29-.2-.05-.42-.07-.65-.08-.12,0-.23,0-.4-.03-.02,0-.16-.03-.27-.16l-.05-.08-.1-.14c-.12-.17-.29-.32-.32-.28-.41-.05-.61-.2-.85-.48-.1-.19-.26-.35-.41-.52-.15-.16-.32-.33-.48-.43-.03-.02-.08-.04-.05-.03.05,0-.02,0-.09-.01-.05-.01-.11-.03-.14-.05-.16-.07-.27-.16-.38-.26-.2-.19-.37-.39-.5-.64-.09-.17-.07-.15-.14-.22-.06-.06-.15-.12-.24-.18-.38-.23-.82-.44-1.24-.68-.21-.12-.42-.24-.64-.4-.1-.09-.24-.16-.34-.4-.08-.26-.03-.34-.05-.42-.05-.33-.35-.76-.6-1.13-.26-.37-.56-.77-.85-1.07-.41-.4-.6-.81-.88-1.21l-.76-1.22c-.22-.4-.52-.69-.88-.93-.09-.05-.18-.1-.25-.13-.03-.01-.07-.02-.06-.01.01,0-.16.02-.21,0-.34-.03-.58-.16-.82-.32-.33-.3-.77-.46-1.19-.73-.11-.07-.21-.12-.35-.24-.13-.14-.11-.12-.19-.16-.12-.06-.35-.07-.57-.07-.11,0-.22,0-.3.02-.04,0-.03.03.05-.06.02-.05.02,0-.05.1-.07.1-.17.15-.22.16-.15.04-.11.03-.15.05-.03.01-.07.04-.12.06-.08.05-.17.12-.26.19-.35.29-.66.61-.96.98-.33.37-.57.74-1.09,1.09-.09.02-.11.14-.17.4-.04.12-.05.27-.2.47-.17.2-.44.23-.59.21-.33-.04-.53-.16-.64-.13-.06,0-.11.02-.18.07-.02,0-.02.02-.11.07-.07.03-.1.04-.15.05-.08.02-.15.03-.21.04-.51.06-.99.07-1.48.06-.14,0-.21.06-.49.23-.15.07-.34.17-.62.06-.27-.14-.32-.35-.37-.48l-.09-.34s0,0,.02,0c.01,0,0,0-.04-.01-.07-.01-.17-.02-.28-.01-.11,0-.2.03-.43,0-.39-.1-.55-.34-.7-.4-.05-.05-.43-.11-.55-.13-.07,0-.1,0-.22.05-.12.05-.24.09-.38.12-.26.07-.6.09-.9-.04-.04-.02-.1-.03-.09-.03-.02.02.17-.01.23-.13.03-.07.01-.02,0,.03-.02.05-.05.12-.1.18-.06.07-.14.12-.18.13-.09.04-.16.06-.23.08-.27.07-.51.1-.77.12h-.11c-.08,0-.08,0,.02-.01.12-.06.08-.06.07-.03-.03.06-.06.17-.09.28-.02.06-.03.12-.06.2-.02.07-.12.27-.34.32-.39.02-.45-.13-.58-.18-.01-.02-.34-.07-.54-.09l-.71-.05c-.22-.02-.41,0-.46.06-.02.01-.04.05-.15.13-.09.06-.16.09-.24.11-.15.05-.3.07-.45.07-.15,0-.31-.02-.46-.07-.04-.01-.07-.02-.06-.02,0,0,.11-.04.12-.07.01-.05,0,.08-.02.23-.02.14-.05.26-.1.41-.1.23-.12.19-.15.31-.03.09-.06.2-.08.29-.02.1-.02.18-.01.27.02.17,0,.36-.09.52-.08.17-.21.3-.34.39-.07.05-.14.08-.2.12-.08.03-.14.06-.13.06-.1.06-.26.26-.39.43-.26.37-.5.78-.71,1.18-.17.33-.44.47-.65.6l-.33.17-.06.03s.1-.1.08-.09c0-.01,0,.03,0,.07,0,.19.02.42.05.66,0,.07.02.09.02.26-.02.13-.06.21-.1.29-.08.15-.26.32-.48.37.02,0-.15.08-.23.13l-.3.18-.6.38c-.41.26-.79.5-1.18.79-.11.07-.24.15-.38.2-.06.03-.17.05-.22.06.01,0,.01,0,0,0-.02.02-.06.08-.08.16-.01.04-.02.08-.02.12v.06s0,.11-.02.14c-.15.59-.39.94-.4,1.32,0,.16-.04.38-.21.55-.17.17-.37.21-.51.23-.14.02-.26.03-.24.04-.03.02-.11.09-.19.17-.08.08-.17.18-.28.28-.04.03-.06.05-.03.03,0-.01,0,0,0,0-.01.03-.03.06-.04.11-.06.19-.09.42-.16.69-.02.07-.04.14-.09.24-.02.1-.26.28-.37.27-.18.03-.29.02-.42.03l-.73-.02-1.43-.08c-.92-.08-1.93.06-2.94-.35-.24-.1-.43-.18-.62-.23-.12-.01-.04-.02-.06-.01-.04.03-.13.13-.21.22-.19.19-.3.35-.58.55-.26.16-.52.24-.78.29-.52.1-1.02.1-1.52.06-.25-.02-.5-.05-.77-.13-.06-.03-.23.02-.29.11-.02.02-.03.04-.04.07,0,.02-.07.16-.1.21-.08.13-.15.23-.23.33l-.46.56-.22.27-.09.12-.04.06s-.06.09-.1.13c-.29.27-.54.33-.83.4h.06s-1.18.26-1.18.26c-.09.02-.18.05-.24.07.02-.02-.16.1-.27.13-.23.09-.46.13-.69.13-.11,0-.23,0-.34-.01-.13-.02-.2-.03-.25-.03-.11,0-.25.05-.42.13-.17.08-.37.19-.62.25-.11.03-.24.06-.44.02-.19-.04-.32-.15-.42-.25-.35-.41-.43-.83-.57-1.18l-.04-.11-.07-.12c-.06-.12-.09-.22-.13-.32-.06-.18-.14-.38-.17-.39,0,0,.02.02.06.03,0,0-.11,0-.17-.02-.13-.03-.28-.08-.41-.18-.13-.1-.24-.24-.29-.39-.04-.12-.04-.12-.08-.16-.11-.16-.55-.29-.91-.48-.35-.17-.71-.36-1.03-.47-.07-.03-.16-.05-.18-.04-.02,0,.02,0,.02,0,.01,0-.08.02-.12.03-.09.01-.16.01-.23,0-.26-.02-.46-.09-.66-.15-.2-.07-.39-.14-.57-.21-.1-.04-.2-.08-.18-.06-.02,0-.08,0-.15.03-.28.11-.59.35-.92.59-.08.05-.2.15-.37.19-.16.04-.3.03-.44.01-.26-.06-.53-.15-.73-.47-.11-.24-.07-.2-.11-.26-.03-.05-.08-.1-.13-.16-.11-.11-.26-.21-.42-.32-.29-.21-.36-.44-.45-.62-.08-.18-.16-.36-.23-.46-.06-.07-.02-.01.05,0,.03,0-.07.02-.14.06l-.53.26c-.38.16-.7.37-1.26.41-.14,0-.33-.03-.47-.13-.14-.1-.22-.2-.23-.2,0,0,.02,0,0,0,.03,0,.08-.08.05-.02-.03.09-.04.31-.07.53-.03.11-.02.22-.15.43-.14.2-.4.26-.53.26-.28,0-.48-.07-.59-.06-.06.02.07-.05,0,0-.04.05-.09.12-.14.19-.22.32-.35.66-.72,1.04-.1.11-.38.21-.52.18-.16-.01-.28-.06-.39-.1-.22-.09-.4-.21-.57-.33l-.21-.15c.17.08.31-.04.28-.03,0,0-.02.02-.04.06-.08.14-.16.33-.24.51-.17.37-.36.74-.63,1.09-.24.33-.67.72-1.2.74-.51.04-.94-.16-1.31-.36l-.51-.3c-.07-.04-.06-.02-.02-.03.04-.02,0,0-.04.06-.16.26-.32.68-.51,1.03-.4.73-.86,1.4-1.55,1.95-.09.07-.19.13-.31.19-.07.03-.13.05-.23.07-.05.02,0,0-.03.01-.09.04-.24.19-.36.32l-.39.43c-.07.08-.13.15-.22.24-.03.03-.03.04-.09.08-.03.02-.04.03-.08.05-.07.07-.33.01-.26.02.02,0-.05,0-.08,0-.35-.02-.74,0-1.04.11l-.05.02s-.04.02-.12.03c-.14.03-.26,0-.31-.02-.15-.04-.24-.1-.34-.15-.19-.11-.36-.23-.52-.36-.64-.5-1.22-1.04-1.8-1.59-.28-.28-.56-.56-.84-.86-.29-.33-.48-.61-.77-.86-.27-.26-.57-.51-.87-.73-.15-.11-.31-.21-.47-.29-.08-.04-.16-.08-.23-.11l-.12-.04c-.07-.03-.15-.06-.21-.09-.75-.53-1.2-1.13-1.73-1.74-.5-.6-1.02-1.28-1.41-1.89-.49-.53-1.13-1.03-1.74-1.5-.31-.24-.62-.47-.94-.69-.29-.21-.66-.37-1.01-.63-.18-.13-.35-.3-.47-.51-.13-.2-.18-.51-.23-.54-.18-.28-.46-.57-.73-.85-.54-.56-1.12-1.09-1.7-1.61-.59-.53-1.16-1.03-1.8-1.53-.59-.55-1.13-1.12-1.67-1.72l-.39-.46c-.06-.08-.13-.16-.19-.25-.03-.04-.07-.11-.1-.17-.02-.03-.02-.04-.05-.07-.2-.24-.54-.47-.85-.68l-.49-.31c-.14-.09-.39-.22-.53-.45-.14-.22-.18-.46-.22-.65-.04-.21-.05-.26-.18-.4-.11-.12-.26-.23-.4-.31-.07-.04-.14-.06-.15-.05-.31-.05-.31-.13-.42-.19-.33-.26-.61-.54-.9-.81l-.43-.39c-.07-.06-.14-.12-.21-.17-.11-.08-.18-.17-.25-.25-.27-.33-.47-.67-.68-1.02-.2-.35-.39-.69-.56-1.07-.05-.31-.42-.4-.78-.58-.17-.05-.44-.23-.56-.38l-.41-.44c-.27-.31-.51-.56-.81-.87-.15-.19-.22-.31-.3-.3-.34-.08-.45-.29-.59-.43-.14-.16-.26-.32-.37-.47-.11-.14-.25-.34-.33-.37-.1-.06-.25-.06-.38-.02-.06.02-.12.06-.14.09l-.16.24c-.12.17-.24.33-.38.49-.08.08-.14.16-.26.24l-.26.17-.48.32c-.18.11-.25.17-.38.35-.12.15-.24.31-.38.47-.07.08-.15.16-.24.23-.04.04-.1.07-.15.1-.03.02-.06.04-.1.06-.26.2-.51.54-.6.82,0,0-.04.16-.09.21-.05.07-.1.11-.15.15-.1.07-.2.12-.31.17-.2.08-.4.14-.61.18-.3-.05-.51.42-1.01.54-.23.08-.53.02-.69-.03-.08-.02-.16-.03-.18-.02-.01,0,0,0-.03.06-.05.14-.01.36-.15.62-.15.23-.3.34-.45.48-.31.26-.63.5-.96.73-.35.21-.62.48-1.14.56-.19.02-.36.04-.48.11l-.47.33c-.17.11-.33.22-.51.33-.09.05-.18.1-.28.15-.1.03-.18.12-.42.08-.17-.07-.55.26-.82.49-.34.32-.82.38-1.21.42-.41.03-.81.02-1.21,0l-1.16-.09c-.15,0-.17.05-.35.25-.24.16-.3.08-.41.11h-.31s-1.17-.08-1.17-.08c-.04-.05-.14.11-.22.28-.09.16-.13.36-.32.56-.29.29-.57.54-.84.82-.13.14-.26.28-.36.42-.13.2-.31.34-.48.45-.34.21-.75.43-1.14.46-.16.05-.33.13-.49.23-.08.05-.16.1-.23.16-.09.06-.21.13-.31.16-.43.13-.84.1-1.22.12-.21,0-.33.01-.47.12-.14.1-.27.24-.42.38-.14.14-.31.28-.5.38-.1.04-.17.14-.41.09-.21-.11-.21-.21-.28-.28-.1-.15-.23-.32-.34-.42-.04-.02,0,0,0,0-.02,0-.09.02-.15.03-.05,0-.13,0-.21-.01-.07-.02-.12-.04-.17-.07-.38-.23-.65-.47-.96-.8-.22-.19-.61-.42-.94-.6-.09-.06-.2-.11-.28-.25-.08-.15-.05-.28-.05-.37,0-.19,0-.37-.08-.48-.04-.06-.09-.1-.16-.13l-.12-.05s-.1-.04-.12-.07c-.03-.03-.05-.06-.06-.08-.12-.19-.19-.37-.28-.55-.08-.17-.17-.38-.25-.48-.04-.1-.22-.02-.49-.08-.22-.08-.38-.18-.56-.27-.14-.07-.42-.24-.39-.17-.13.08-.27.23-.38.38-.11.17-.31.33-.51.41-.19.09-.47.1-.64.07-.17,0-.36.03-.55.07-.18.04-.36.11-.53.19-.08.04-.15.09-.2.14-.05.06-.17.18-.28.21-.24.08-.46.03-.66-.01-.2-.03-.42-.18-.56-.28-.16-.1-.33-.2-.48-.23-.13,0-.43.03-.62-.13-.2-.14-.28-.36-.37-.51-.07-.15-.24-.22-.4-.35l-.48-.34c-.07-.04-.19-.14-.21-.14-.02-.01-.09.03-.17.09-.29.24-.65.55-1.09.55-.42.01-.81-.09-1.19-.18-.19-.04-.38-.09-.57-.12-.18-.03-.37-.02-.43.1-.06.11-.08.39-.21.55-.11.17-.22.33-.34.49-.23.32-.47.63-.72.94-.07.08-.11.15-.22.23-.11.07-.22.09-.32.1h-.59c-.19.02-.39.05-.56.11-.16.05-.29.21-.45.33-.16.12-.34.23-.54.29-.2.06-.37.09-.49.24-.13.13-.25.32-.5.37-.11.02-.25-.02-.33-.11-.08-.09-.12-.18-.18-.23-.27-.18-.72-.13-1.11-.18-.44-.11-.66-.52-.83-.87-.03-.08-.09-.21-.11-.21-.04.02-.24,0-.3-.09-.15-.16-.21-.36-.27-.55-.06-.19-.09-.39-.12-.59-.04-.2-.04-.4-.27-.32-.1.02-.24-.02-.31-.12-.07-.09-.11-.18-.14-.28-.07-.18-.1-.41-.16-.54-.12-.07-.37-.04-.51.02l-.4.42c-.15.14-.26.28-.32.47-.04.08-.05.19-.13.28-.07.08-.18.13-.28.15-.2.04-.4.02-.6,0-.16.02-.3.21-.41.35l-.06-.04c.13-.15.23-.35.47-.39.2,0,.39.03.58-.01.2-.03.3-.17.35-.38.06-.19.2-.37.34-.5l.41-.44c.21-.08.4-.13.63-.01.11.22.11.39.19.58.07.18.15.37.34.33.07-.02.26-.03.31.11.05.1.06.2.08.3.03.2.06.38.12.57.06.18.13.37.25.5.08.07.09.07.24.06.16.1.14.19.19.28.15.34.39.71.74.79.37.06.78-.05,1.19.2.15.18.21.34.39.3.15-.02.28-.19.42-.33.13-.17.38-.23.55-.28.18-.06.34-.15.49-.27.15-.11.27-.28.49-.36.2-.07.4-.1.6-.11.41-.05.82.1,1-.28.24-.31.48-.62.71-.94.11-.16.23-.32.33-.48.13-.16.1-.3.21-.55.15-.25.45-.23.63-.2.2.03.4.08.59.12.38.09.77.18,1.14.16.37,0,.66-.25.96-.51.08-.05.17-.16.36-.14.17.06.19.12.29.17l.48.34.24.17c.09.05.19.16.23.25.1.18.18.35.31.44.14.1.26.08.52.08.24.04.41.16.58.26.19.11.29.2.49.24.18.04.37.07.51.02.08-.03.1-.05.18-.14.09-.09.18-.15.28-.2.19-.1.38-.16.58-.21.2-.05.4-.09.62-.08.22.03.35.02.52-.05.33-.11.45-.51.85-.77.04-.03.14-.08.25-.05.07.02.11.04.16.07l.27.14c.17.09.35.19.5.24.07.02.14.02.25.01.1-.01.29.04.38.15.17.21.22.38.31.56.08.18.16.36.25.5.01.02.02.03.03.04.01,0-.04-.02,0,0,.05.02.1.03.15.06.11.05.21.13.29.24.15.22.14.47.14.66-.01.23,0,.22.17.33.36.21.67.35,1.04.68.23.25.55.53.85.7.1.04.1.06.19.05.04,0,.06-.01.14-.03.1-.03.23.04.27.08.18.17.28.32.4.49.18.21.02.17.25.08.16-.08.29-.2.43-.33.14-.13.28-.28.46-.41.18-.15.47-.18.65-.18.4-.01.79,0,1.12-.1.09-.03.14-.06.21-.11.08-.06.17-.12.26-.18.18-.11.36-.21.58-.27.4-.04.71-.22,1.03-.42.15-.1.29-.22.38-.35.12-.19.26-.33.4-.48.27-.29.57-.56.84-.83.1-.08.16-.28.25-.47.05-.09.09-.19.17-.29.04-.05.08-.1.15-.15.07-.05.21-.06.24-.06l1.18.07h.28c.07.02.23-.03.15,0,.04-.04.11-.14.22-.23.11-.09.26-.13.39-.13l1.19.09c.39.02.77.03,1.15,0,.37-.04.75-.1.98-.33.15-.13.31-.26.48-.38.16-.1.4-.28.72-.19-.04,0,.07-.01.14-.06.08-.04.16-.08.24-.13.16-.1.32-.2.48-.31l.49-.35c.22-.14.46-.15.66-.17.27-.02.64-.3.95-.49.32-.22.63-.45.92-.7.14-.12.3-.27.36-.37.06-.09.05-.29.1-.52.02-.11.14-.32.33-.36.17-.04.29-.01.4.02.21.06.31.08.47.03.14-.04.28-.14.43-.26.08-.06.15-.13.26-.2.03-.02.06-.04.11-.05.06-.02.1-.02.11-.02l.13-.02c.18-.04.36-.09.52-.16.17-.08.3-.15.29-.23.15-.46.41-.78.76-1.07.36-.19.52-.46.79-.78.1-.15.32-.36.48-.44l.5-.34.24-.16s.11-.1.17-.16c.12-.14.24-.29.35-.44l.17-.25c.1-.13.22-.19.34-.24.24-.09.52-.09.77.05.26.17.33.34.47.49.12.16.24.31.36.45.12.13.26.28.33.27.14.02.31.13.38.22l.19.23c.25.25.55.58.8.86l.4.43c.14.16.2.19.41.28.18.08.37.16.56.27.1.06.19.12.29.22.05.05.1.13.13.21l.05.12c.16.34.35.69.54,1.02.2.33.4.67.63.94.06.07.12.13.17.17.09.07.17.13.25.2l.44.41c.29.27.57.55.86.77.04.05.21.11.09.09.19,0,.31.06.41.11.21.11.38.24.54.41.17.14.3.47.31.65.03.2.07.35.14.46.11.19.58.39.88.61.34.23.67.43.98.79.21.37.44.6.71.91.52.57,1.07,1.15,1.63,1.67.6.47,1.22,1.01,1.8,1.53.59.53,1.17,1.06,1.74,1.63.28.29.55.57.81.94.16.3.14.42.23.54.08.13.19.24.33.35.28.21.64.37.99.61.34.23.65.46.97.7.63.49,1.25.95,1.83,1.58.47.7.91,1.27,1.42,1.89.49.58,1.03,1.22,1.58,1.6.03.02.04.02.06.03.03.01.11.03.16.05.11.04.21.09.31.14.19.1.36.22.53.33.33.24.65.5.94.78.3.26.57.64.8.89.26.28.54.56.81.83.56.54,1.14,1.07,1.74,1.53.27.21.7.5.74.38.45-.15.86-.17,1.3-.15.06,0,.1,0,.21.03.1.02-.14-.05-.19.02h-.02s.02,0,.02-.01l.18-.2.4-.45c.15-.15.27-.3.53-.45.04-.03.2-.07.24-.08,0,0,.03,0,.05-.02.06-.03.12-.07.19-.12.54-.43,1.01-1.08,1.36-1.73.19-.34.29-.68.54-1.09.07-.1.16-.24.38-.33.24-.08.44.02.55.07l.51.29c.32.17.65.3.93.27.28-.02.5-.19.73-.49.21-.28.38-.61.54-.96.08-.18.15-.35.26-.56.03-.05.06-.11.13-.18.06-.05.05-.07.18-.13.11-.05.24-.05.36.02.17.1.18.13.28.19.15.1.31.2.45.26.07.03.14.05.17.05.05-.01-.02.02.02,0,.18-.18.38-.57.6-.91.06-.09.12-.18.21-.28.05-.1.36-.27.51-.24.29,0,.47.07.58.06.06,0,.01,0-.01.03-.02.04.02-.05.03-.13.03-.17.02-.35.1-.64.03-.14.21-.39.44-.43.18-.05.41-.02.57.1.29.25.18.19.3.2.24,0,.63-.19.96-.34l.53-.26c.1-.04.18-.11.41-.13.11-.01.28.04.36.11.09.07.13.12.17.18.16.22.23.41.31.59.07.17.17.32.21.34.17.11.35.23.52.4.08.08.17.18.24.3.07.1.14.34.12.28,0,.03.13.11.25.13.06.01.12,0,.15,0,.02,0,.06-.03.14-.08.31-.22.62-.49,1.08-.67.12-.04.25-.08.43-.07.22.03.3.08.38.11.18.07.36.14.53.2.17.06.35.11.49.12.03,0,.05,0,.07,0,.01,0-.03,0,.03,0,.06-.01.14-.03.17-.02.19,0,.29.04.4.08.42.15.76.34,1.12.51.32.2.71.22,1.14.67.09.11.17.29.19.36.01.04.03.06.06.08.03.02.07.04.13.05l.13.02c.14.02.25.09.32.16.24.28.26.48.34.66.03.09.06.18.09.23l.08.14c.03.06.05.12.07.16.14.38.26.76.43.95.11.07,0,.07.21.03.14-.03.29-.11.48-.2.18-.09.42-.2.71-.2.15,0,.27.03.34.03.08.01.16.01.24.01.16,0,.33-.03.47-.09.08-.03.06-.04.26-.13.12-.05.22-.07.32-.1l1.12-.26.06-.02c.17-.03.4-.13.45-.19,0,0,.01-.01.01-.01l.06-.09.12-.16.23-.28.45-.54c.07-.09.13-.18.18-.26.03-.06.02-.03.05-.12.03-.09.08-.17.14-.24.24-.28.6-.43,1-.33.19.06.42.08.64.1.45.03.91.04,1.33-.05.21-.04.41-.11.55-.2.11-.07.31-.28.45-.44.08-.09.14-.17.29-.29.07-.06.21-.13.34-.14.13-.01.21,0,.28.03.27.06.52.18.72.26.78.34,1.76.23,2.72.31l1.43.08.7.02c.11,0,.24,0,.29-.01.01-.02-.12.09-.09.07,0-.01.02-.05.03-.1.06-.19.09-.44.17-.71.02-.07.05-.14.09-.22.03-.05.05-.09.1-.14.06-.06.09-.08.1-.09.07-.06.14-.14.23-.22.09-.09.18-.2.35-.3.23-.11.36-.08.46-.11.2-.06.12.01.16-.15.02-.6.34-1.08.41-1.41v-.16c.02-.08.03-.16.06-.23.05-.15.12-.31.27-.45.08-.07.18-.14.31-.16.07-.01.08-.02.12-.03.08-.03.16-.08.25-.13.37-.27.8-.54,1.19-.8l.61-.38.31-.19c.13-.07.17-.11.41-.2.02,0,.03,0,.06-.06.03-.09.02.03,0-.14-.03-.24-.07-.48-.06-.77,0-.07,0-.15.05-.28,0-.05.12-.19.19-.23l.09-.05.31-.16c.19-.11.36-.22.4-.33.23-.44.47-.85.77-1.26.16-.2.29-.41.58-.61.12-.06.16-.08.19-.09.04-.02.08-.04.11-.06.06-.04.11-.09.13-.14.02-.05.03-.1.03-.17-.02-.15,0-.31.02-.45.02-.14.06-.27.1-.4.02-.12.17-.33.16-.33.03-.07.05-.18.07-.28.03-.08-.02-.2.11-.47.07-.14.29-.25.41-.24.13,0,.22.03.29.05.08.03.16.04.25.04.09,0,.18-.01.25-.04.04-.01.07-.03.08-.04l.12-.1c.33-.25.66-.2.91-.2l.72.05.38.04c.13.03.26.02.47.16.06.07.22.09.07.08-.1.02-.13.11-.11.07l.04-.14c.03-.12.06-.24.14-.39.05-.07.07-.19.3-.29.16-.04.21-.01.19-.02h.07c.21-.01.45-.05.64-.1.05-.01.09-.03.11-.04.02-.01-.01,0-.03.03v.02s-.02-.02.04-.14c.08-.17.34-.21.39-.19.13.02.19.05.25.07.15.07.31.06.51.01.1-.02.2-.06.3-.1.1-.04.3-.11.47-.1.18,0,.29.05.4.07.08.01.3.05.43.14.27.16.43.33.52.33,0,0,.16,0,.28,0,.13,0,.26,0,.43.03.08.02.18.05.29.12.11.07.19.24.21.3l.09.35c.02.1.07.13.03.09-.06-.02,0,0,.06-.04.12-.07.45-.34.81-.31.46.01.94,0,1.38-.05l.14-.03s.04-.01.02,0c-.04.03,0,0,.04-.03.13-.09.3-.17.48-.18.37-.02.61.14.76.13.08,0,.07,0,.06,0,0,.01.04-.09.06-.19.03-.11.05-.24.11-.39.04-.14.23-.36.37-.41.28-.18.61-.6.91-.94.3-.37.66-.75,1.05-1.06.1-.08.2-.16.32-.23.06-.04.12-.07.2-.11.06-.03.23-.07.19-.06,0-.05-.17.23-.05,0,.14-.21.28-.2.36-.23.16-.03.29-.03.42-.03.25,0,.52,0,.84.13.14.05.33.24.36.28.03.03.15.11.24.16.38.24.86.42,1.24.76.15.11.35.2.49.21.06,0,0,0,.14,0,.13,0,.21.02.29.04.15.05.27.12.39.19.43.28.83.69,1.07,1.13l.75,1.21c.26.38.51.84.79,1.1.37.39.64.76.93,1.16.26.42.57.77.7,1.39.05.42-.05.22.15.41.17.12.37.24.57.36.41.23.83.43,1.27.69.11.07.22.14.33.25.12.08.24.33.25.37.09.17.23.34.38.48.07.07.15.13.21.15.02,0,.02,0,.03,0-.01,0-.02,0,.09.01.14.03.2.08.27.12.24.17.41.34.58.53.16.18.35.37.47.6.06.09.29.23.36.22-.02,0,.08,0,.14,0,.06.01.12.03.16.05.09.04.16.1.21.15.11.1.2.21.28.31l.11.16.05.07c-.06-.08-.14-.09-.11-.08.06.01.2.02.32.02.24.01.5.03.77.1.13.03.27.08.41.16l.3.18c.18.1.38.16.46.12.02,0,.04-.01.06-.03.04-.03.13-.1.18-.12.12-.07.24-.12.36-.17.24-.1.47-.17.72-.24.13-.03.25-.06.41-.07.14,0,.2-.01.32-.03.21-.04.42-.11.61-.2.09-.04.19-.1.2-.12.07-.1.23-.24.35-.29.25-.14.48-.21.68-.29.11-.03.16-.18.39-.45.25-.27.64-.29.82-.32.23-.04.46-.08.66-.14.05-.01.11-.03.11-.04-.05.04.04-.03.1-.06.05-.02.1-.03.14-.04.17-.03.33-.02.48.01.3.07.55.23.75.42.38.36.66.75.97,1.09.07.08.16.18.2.2.01.01,0,0-.08-.01.18.02.29.14.31.2.06.1.07.18.09.24.07.27.09.5.13.73l.03.16s.05.12,0,.04c-.21-.14-.13-.05-.14-.08h.08c.07,0,.16,0,.26.02.21.05.37.21.45.35l.18.31c.1.18.29.36.3.34.38.07.54.22.77.34.21.14.41.28.61.45.1.08.22.24.24.24.02.02.05.03.12.07.07.03.2.15.24.26.08.2.05.4.06.44,0,.08.03.17.07.26.07.18.2.36.33.52.14.17.25.2.52.37.21.14.4.3.59.45.37.34.76.58,1.06,1.1.22.38.48.73.86.92.53.35.71.84.97,1.18.1.1-.04.02.13.07l.36.07c.25.06.5.1.79.33.15.14.2.29.25.39.06.11.01.04.05.07.05,0,.15,0,.26-.01.14-.02.27-.03.4-.02.51,0,1.03.12,1.46.25.15.02.42.02.63,0,.1,0,.25-.03.28-.04.33-.07.38.02.53.04.13.04.25.09.37.15.03.02.06.03.11.06,0-.06.19.2.17.28v.19c.01.22.04.44.1.62.08.2.09.2.34.32.2.1.37.14.48.1.1-.02.3-.23.53-.36.11-.07.25-.14.4-.18.07-.02.17-.03.22-.04.02,0-.01,0,0,0,.06-.06.21-.37.35-.55.08-.11.13-.18.18-.27.06-.1.05-.15.19-.37.04-.06.15-.14.25-.15.09-.01.15,0,.2.01.09.02.15.05.21.08.12.05.25.12.36.2.22.15.41.33.56.43.08.05.1.05.1.04-.02.02.04-.04.09-.13.1-.18.18-.4.27-.63.05-.11.09-.23.16-.35.08-.12.1-.25.34-.4.09-.04.15-.05.13-.05,0,0,.03,0,.04-.02.03-.02.07-.04.12-.07.08-.05.16-.12.24-.2.31-.3.57-.68.68-1.07l.17-.69c.03-.12.06-.24.11-.37.03-.07.06-.14.12-.23.03-.04.07-.09.13-.12.06-.04.13-.07.11-.06.29-.19.66-.58.9-.92.13-.18.2-.34.23-.53.03-.09-.02-.22.11-.46.14-.2.3-.24.39-.3.25-.16.55-.64.8-1.01.14-.2.27-.4.43-.6.09-.1.15-.2.33-.32.19-.08.08-.03.14-.07.04-.02.08-.05.12-.09.68-.58,1.37-1.31,1.93-2,.19-.34.4-.84.69-1.25.04-.05.08-.11.13-.17.07-.05.09-.14.34-.18-.04,0,.12-.05.19-.1.19-.11.38-.25.56-.39.18-.14.36-.29.47-.44.16-.19.32-.47.74-.53.2-.03.41.09.5.15.08.05.18.1.28.14.21.09.43.18.65.25.22.08.45.15.66.21l.14.03c.06,0,.14.03.21.04.13.04.26.08.38.14.5.21.86.64,1.19.88.18.13.33.21.47.18.36-.03.61.11.84.24.11.07.22.15.32.23l.15.13s.06.06.1.09c.15.1.36.16.59.23.21.04.54.21.7.31.2.11.45.2.67.44.11.11.19.31.21.44.02.11.05.21.08.3.07.19.18.36.3.41.09.05.36.04.58.02.24,0,.47-.06.8.01.08.01.22.09.29.19.06.08.08.14.11.2l.14.34c.04.11.09.22.13.3.02.04.05.08.05.08.01,0-.06-.04-.11-.04-.01,0,0,0,.02,0,.15-.06.36-.2.52-.34.09-.06.11-.15.35-.27.25-.07.35,0,.48,0,.46.08.91.1,1.37.08.11,0,.23-.02.32-.03.06-.01.06-.01.1-.03.13-.06.24-.06.32-.05.32.05.53.17.76.29.45.26.79.49,1.22.57.05.01.1.02.15.02h.07s.15.02.18.04c.17.08.26.16.36.24.2.16.37.32.55.48l.26.23s.09.07.11.09c.04.01-.06,0,0,0,.17-.04.4-.15.63-.24.12-.04.24-.09.4-.11.08,0,.18-.02.31.04.11.05.17.12.22.17.19.22.29.44.42.64.05.09.14.21.14.2,0,0-.09-.04-.15,0-.02,0-.01.01,0,0,.03-.02.06-.07.1-.11l.44-.57c.09-.1.17-.2.3-.29.07-.04.15-.1.28-.11.17,0,.16.02.25.03.24.05.46.1.69.13.45.07.85.01,1.28-.17.22-.08.43-.18.68-.26.13-.04.26-.08.44-.07.16.01.28.05.4.08l.68.22c.09.03.26.07.25.07.05-.02.26.04.29.11.06.07.07.11.09.15.03.08.04.14.06.19.07.24.11.34.26.38.18.06.42.07.68.13.13.03.28.07.43.21.08.09.09.12.13.16.03.04.07.07.1.11.08.07.16.14.25.2l.14.1s.02,0,.13.11c.06.09.05.12.07.15.03.12.06.22.1.27.04.04-.01.02.05.01.16-.06.38-.2.58-.32.21-.12.41-.25.66-.36.11-.04.29-.13.52-.05l.34.14c.21.09.43.16.6.17.12.02.27-.12.44-.28l.26-.25c.11-.08.14-.18.42-.26.08,0,.28-.18.4-.34.07-.08.13-.17.17-.26.06-.12.16-.28.33-.37.35-.14.57-.08.84-.08.27.01.58.15.77.34.2.19.34.36.51.51.34.32.69.63,1.08.86.19.12.38.21.58.25.24.07.49.12.72.21.23.09.46.18.69.33.03.02.06.04.1.07.04.03.1.11.1.12.03.05.05.08.07.09.03.03.1.05.2.05.13,0,.27.03.41.07.14.06.26.06.43.28.07.18.04.17.06.24l.03.17c.02.11.05.22.09.32.06.2.18.42.26.44.07.03.33-.02.51-.12l.31-.16c.06-.03.11-.06.21-.09.06-.02.21,0,.19,0l.1.03c.28.09.5.29.67.48.08.09.16.21.21.25.03.02,0,0,0,0,0,0,.04-.01.09-.03.2-.11.43-.23.68-.31.13-.04.26-.08.42-.08.15-.01.41.06.5.26.14.29.16.51.22.75l.14.7c.05.2.11.51.2.53.27.34.22.54.31.77.03.11.07.21.11.29.03.04.04.06.08.11.05.05.09.11.13.17.15.26.19.4.37.51.17.11.38.24.54.25.19.02.47,0,.69.02h.37c.16,0,.36.11.45.21.38.4.57.79.94,1.02.18.12.37.21.6.3.11.05.23.09.36.18.14.09.24.24.3.34.11.22.19.3.39.36.18.05.44.07.67.1.47.06.95.1,1.44.19.12.03.24.05.38.1.07.03.13.05.22.12l.13.12c.16.13.37.24.56.31.05.02.1.03.13.03.05-.02-.1.05-.04.01.05-.07.11-.19.2-.31.08-.11.25-.25.46-.25.21.01.28.05.37.06.09.03.25-.13.41-.3.16-.17.29-.35.42-.54.13-.19.25-.4.44-.61.09-.1.23-.21.42-.25.11-.01.17,0,.2,0,.05,0,.1,0,.15-.02.21-.04.43-.11.65-.19l.34-.12c.18-.06.34-.02.45,0,.5.12.96.22,1.42.61.27.37.67.59,1.07.8.17.08.46.14.68.31.11.08.21.16.3.26l.13.14s0,.01.03.02c.12.02.37-.08.59-.15.12-.04.24-.08.4-.1l.36-.02c.24-.01.47-.03.7-.05.21-.02.51-.06.6-.11-.03.05.06-.13.08-.22l.11-.34.22-.69c.09-.23.14-.45.32-.71.18-.19.21-.15.3-.25.08-.07.16-.15.24-.24.16-.17.3-.35.45-.54.17-.2.35-.38.58-.52.06-.04.13-.07.21-.09.06-.03.24-.03.18-.02-.03.03.05-.06.09-.16.05-.1.09-.23.19-.35.06-.07.1-.18.21-.3.1-.13.27-.21.42-.24.13-.02.21-.04.29-.08.07-.04.21-.13.33-.18.1-.04.24-.11.41-.12.3,0,.51.06.76.1.23.04.54.14.73.32.09.07.19.15.26.19.08.03.09.03.16,0,.14-.09.3-.28.44-.46.3-.37.56-.76.93-1.13.06-.04.1-.12.27-.14.06,0,.08,0,.12-.02.06-.02.15-.1.22-.17.15-.16.29-.35.42-.54.13-.19.24-.37.3-.58.03-.1.04-.2.05-.32,0-.11.04-.31.17-.44.24-.24.5-.26.68-.37.19-.1.37-.23.53-.38.16-.16.3-.33.41-.52.06-.09.1-.19.13-.29.04-.12.08-.24.14-.36.12-.22.22-.5.6-.61.23-.02.27.02.39.01.11,0,.22,0,.32-.03.21-.04.37-.13.44-.29.05-.09.05-.2.19-.37.16-.15.33-.15.45-.16.26-.01.49,0,.75.03.25.02.6.14.73.45.21.57,0,1.04.37,1.26.08.07.18.14.23.15,0,.01.04-.02.19.02.11.04.16.11.2.14.13.1.37.19.58.26.45.14.87.24,1.37.26.26.04.49.13.72.22.11.04.23.09.32.12.03.03.03-.04-.09.04,0,0,0-.01.02-.04l.07-.15c.18-.43.31-.89.59-1.34.05-.06.08-.12.16-.18.02-.03.1-.06.17-.07h.05c.08-.03.19-.09.28-.14.2-.11.39-.25.57-.39.18-.14.36-.3.51-.46.07-.08.15-.17.18-.24.02,0,.03-.21.06-.32.1-.55.64-.9.88-1.19.06-.09.23-.24.37-.26.14-.04.26-.04.39-.05l.72-.02c.22-.01.44-.05.63-.14.1-.04.16-.1.32-.18.25-.08.4.08.49.15.41.34.59.82.95,1.04.36.24.81.23,1.3.23.25.01.51.04.76.14.26.09.48.35.58.56.07.11.06.1.14.11.08,0,.17-.02.27-.07.1-.04.19-.1.29-.16.11-.06.14-.14.37-.2.23-.02.33.09.41.11.08.03.15.02.18-.02.15-.13.3-.33.44-.51l.87-1.14c.15-.19.29-.38.51-.56.08-.06.15-.09.17-.1.04-.02.08-.05.11-.08.07-.06.13-.15.18-.25.11-.19.17-.43.33-.66.17-.24.47-.35.71-.39.25-.05.47-.07.64-.17.17-.09.31-.27.42-.46.23-.39.37-.86.7-1.27.08-.1.19-.21.35-.26.16-.06.36,0,.41,0,.2,0,.43-.04.65-.1.44-.13.88-.32,1.25-.57.34-.17.51-.82,1.09-.95.43-.11.82-.39,1.2-.67.37-.29.71-.59,1-.98.31-.37.71-.74,1.22-.87.25-.06.51-.09.77-.04.26.05.48.16.68.19.39.1.67-.38.94-.74.27-.39.52-.8.84-1.18.16-.18.34-.39.62-.48l.68-.23,1.35-.47c.95-.2,1.53-.93,1.92-1.84.15-.2.3-.39.51-.56.21-.12.34-.28.52-.46.18-.16.32-.36.64-.45.23-.01.37-.13.52-.3.26-.34.44-.84.81-1.19.05-.04.1-.1.18-.13-.01,0,.05-.05.08-.09l.23-.28c.08-.09.17-.19.29-.26.06-.04.15-.07.24-.07.06,0,.11,0,.16,0,.21-.01.4-.1.51-.27.12-.17.19-.43.42-.62.12-.1.26-.14.39-.15.12-.01.22-.03.34-.06.22-.05.45-.13.61-.25.04-.03.06-.05.07-.08l.06-.17.11-.34.23-.68c.06-.13.05-.2.18-.38.02-.03.09-.18.13-.28.1-.22.19-.44.32-.66.08-.1.09-.25.36-.3l.35.03c.22,0,.49,0,.52-.14.07-.19.1-.45.18-.68.05-.12.09-.26.27-.35.2-.07.31,0,.44.05.12.06.22.14.32.2.05.03.09.06.13.08.02,0,.04.01.05.01.05,0,.13.04.16.09.13.33.06.52.12.75.02.22.17.36.3.6l.33.63c.05.1.12.2.18.24.07.04.2.08.3.12.22.08.45.16.68.26.11.05.22.11.33.19.05.04.11.09.15.17l.08.15c.12.19.26.38.42.54.08.08.17.15.26.19.05.03.07.02.17.06.09.05.13.12.16.19.1.27.08.51.09.75,0,.43.25.89.56,1.17.16.15.36.14.63.21.24.06.5.21.63.45.13.25.16.45.31.63.13.18.32.32.51.42.46.18.84.65.9,1.16.03.22.13.42.3.53.18.12.39.13.65.18.28.06.46.28.63.37.2.09.44.13.67.2.12.04.23.05.37.14.04.04.11.08.15.17.03.08.04.14.04.2.03.24.04.48.09.7.09.42.33.95.78.89.23-.01.55.06.72.28.17.2.25.46.32.67.17.43.46.81.88.99.42.17.9.29,1.34.48.22.09.45.19.66.32.05.03.1.07.15.11.05.06.1.09.13.1.08.04.21.07.31.1.46.1.93.16,1.4.21.95.1,1.9.17,2.85.18.48,0,.95,0,1.42-.04.23-.02.48-.05.67-.13.21-.09.43-.22.67-.28.24-.07.51-.07.75,0,.18.1.35-.15.53-.28l.52-.49c.2-.2.48-.21.71-.24.48-.03.89-.24,1.31-.46l.63-.34c.1-.06.18-.13.26-.21.09-.07.12-.21.32-.25.2,0,.26.17.33.25l.2.3.39.6c.26.4.52.8.82,1.16.15.18.31.36.48.5.16.15.41.18.63.27.45.17.88.43,1.23.77.35.34.65.72.9,1.13l.38.61c.13.19.26.43.44.47.11.02.22,0,.35.02.14.02.26.1.35.18.19.17.32.38.46.57.28.37.54.81.94,1.02.42.18.93.34,1.2.81.21.42.52.79.99.9.44.18.88.38,1.31.59.43.23.82.5,1.26.66.11.04.22.08.33.09.06,0,.09,0,.15-.02.07-.03.13-.03.2-.03.25,0,.49.04.72.09.23.06.47.11.69.22.2.06.46.06.69.08.24.02.48.03.72.09.29.05.38.35.54.49.32.35.83.33,1.3.42.46.13.93-.04,1.42,0,.23,0,.5.07.66-.04.14-.15.21-.41.33-.61.12-.21.27-.43.53-.51.24-.06.48-.09.71-.12.47-.06.95-.1,1.43-.14.48-.04.95-.07,1.43-.09h.72c.23,0,.5-.04.72.12.37.31.7.66,1.18.75.46.1.94.01,1.4-.06.47-.09.93-.21,1.37-.37.45-.16.87-.36,1.2-.73.18-.16.37-.31.58-.44.19-.12.47-.25.7-.11.44.2.86.44,1.19.8l-.05.05Z"/><path class="cls-26" d="m41,49.68c.68-.59.89-.66,1.1-.59.21.07,1.27-.7,1.43-.83.17-.13.34-.17.72-.2.38-.03,2.19-1.33,2.34-1.7.14-.37-.06-.93.65-.7.7.22,1.1-.48,1.35-.51.15-.02.5-.09.78-.22.1-.14.2-.27.26-.37.04-.07.11-.12.19-.16.14-.31.44-.7.74-.86.37-.2.74-.86.95-1.01.21-.15.69-.49.9-.6.21-.11.6-.66.75-.9.15-.24.68-.37.97-.06s.78,1.1,1.06,1.13.3.24.6.53c.3.29,1.05,1.18,1.26,1.33.21.15,1.01.38,1.13.7.11.31.92,1.85,1.39,2.29.96-1.71,1.53-3.68,1.53-5.79,0-6.58-5.33-11.91-11.91-11.91s-11.91,5.33-11.91,11.91c0,3.36,1.4,6.37,3.64,8.53.03-.02.07-.03.09-.05Z"/></g></svg>