<?xml version="1.0" encoding="UTF-8"?><svg id="Logo_Copy" xmlns="http://www.w3.org/2000/svg" xmlns:xlink="http://www.w3.org/1999/xlink" viewBox="0 0 249.6 111.48"><defs><style>.cls-1{stroke:url(#linear-gradient-3);}.cls-1,.cls-2{fill:none;stroke-miterlimit:10;}.cls-3{fill:url(#linear-gradient);}.cls-4{fill:#f0f0f0;}.cls-2{stroke:#f0f0f0;stroke-width:.2px;}.cls-5{fill:url(#linear-gradient-8);}.cls-6{fill:url(#linear-gradient-9);}.cls-7{fill:url(#linear-gradient-4);}.cls-8{fill:url(#linear-gradient-2);}.cls-9{fill:url(#linear-gradient-6);}.cls-10{fill:url(#linear-gradient-7);}.cls-11{fill:url(#linear-gradient-5);}.cls-12{fill:url(#linear-gradient-12);}.cls-13{fill:url(#linear-gradient-10);}.cls-14{fill:url(#linear-gradient-11);}</style><linearGradient id="linear-gradient" x1="128.92" y1="-120.08" x2="164.87" y2="-67.17" gradientTransform="translate(-.22 175.51) rotate(4.19)" gradientUnits="userSpaceOnUse"><stop offset="0" stop-color="#f99c1c" stop-opacity=".6"/><stop offset=".14" stop-color="#f99c1c" stop-opacity=".56"/><stop offset=".38" stop-color="#f99c1c" stop-opacity=".46"/><stop offset=".68" stop-color="#f99c1d" stop-opacity=".3"/><stop offset="1" stop-color="#f99d1e" stop-opacity=".1"/></linearGradient><linearGradient id="linear-gradient-2" x1="1138.85" y1="1353.09" x2="1162.29" y2="1380.11" gradientTransform="translate(-918.68 -195.31) rotate(-21.48) scale(.73 .47)" gradientUnits="userSpaceOnUse"><stop offset="0" stop-color="#f99c1c" stop-opacity=".6"/><stop offset=".48" stop-color="#f99c1c" stop-opacity=".59"/><stop offset=".65" stop-color="#f99c1c" stop-opacity=".57"/><stop offset=".77" stop-color="#f99c1c" stop-opacity=".52"/><stop offset=".87" stop-color="#f99c1d" stop-opacity=".45"/><stop offset=".95" stop-color="#f99c1d" stop-opacity=".36"/><stop offset="1" stop-color="#f99d1e" stop-opacity=".3"/></linearGradient><linearGradient id="linear-gradient-3" x1="133.8" y1="18.57" x2="210.76" y2="18.57" gradientUnits="userSpaceOnUse"><stop offset="0" stop-color="#f99c1c"/><stop offset=".43" stop-color="#f99c1c" stop-opacity=".99"/><stop offset=".58" stop-color="#f99c1c" stop-opacity=".97"/><stop offset=".69" stop-color="#f99c1c" stop-opacity=".92"/><stop offset=".78" stop-color="#f99c1c" stop-opacity=".85"/><stop offset=".86" stop-color="#f99c1c" stop-opacity=".76"/><stop offset=".93" stop-color="#f99c1d" stop-opacity=".65"/><stop offset=".99" stop-color="#f99c1d" stop-opacity=".53"/><stop offset="1" stop-color="#f99d1e" stop-opacity=".5"/></linearGradient><linearGradient id="linear-gradient-4" x1="192.61" y1="30.9" x2="210.99" y2="30.9" gradientUnits="userSpaceOnUse"><stop offset="0" stop-color="#f99c1c" stop-opacity=".55"/><stop offset=".59" stop-color="#f99c1c" stop-opacity=".54"/><stop offset=".81" stop-color="#f99c1c" stop-opacity=".52"/><stop offset=".96" stop-color="#f99c1d" stop-opacity=".47"/><stop offset="1" stop-color="#f99d1e" stop-opacity=".45"/></linearGradient><linearGradient id="linear-gradient-5" x1="192.42" y1="28.69" x2="197.08" y2="28.69" gradientUnits="userSpaceOnUse"><stop offset="0" stop-color="#f99c1c" stop-opacity=".55"/><stop offset=".68" stop-color="#f99c1c" stop-opacity=".54"/><stop offset=".93" stop-color="#f99c1d" stop-opacity=".52"/><stop offset="1" stop-color="#f99d1e" stop-opacity=".5"/></linearGradient><linearGradient id="linear-gradient-6" x1="172.12" y1="30.92" x2="192.69" y2="30.92" gradientUnits="userSpaceOnUse"><stop offset="0" stop-color="#f99c1c" stop-opacity=".7"/><stop offset=".55" stop-color="#f99c1c" stop-opacity=".69"/><stop offset=".74" stop-color="#f99c1c" stop-opacity=".67"/><stop offset=".88" stop-color="#f99c1d" stop-opacity=".62"/><stop offset="1" stop-color="#f99c1d" stop-opacity=".55"/><stop offset="1" stop-color="#f99d1e" stop-opacity=".55"/></linearGradient><linearGradient id="linear-gradient-7" x1="133.79" y1="30.91" x2="143.69" y2="30.91" gradientUnits="userSpaceOnUse"><stop offset="0" stop-color="#f99c1c"/><stop offset=".59" stop-color="#f99c1c" stop-opacity=".99"/><stop offset=".81" stop-color="#f99c1c" stop-opacity=".97"/><stop offset=".96" stop-color="#f99c1d" stop-opacity=".92"/><stop offset="1" stop-color="#f99d1e" stop-opacity=".9"/></linearGradient><linearGradient id="linear-gradient-8" x1="150.17" y1="30.91" x2="165.25" y2="30.91" gradientUnits="userSpaceOnUse"><stop offset="0" stop-color="#f99c1c" stop-opacity=".85"/><stop offset=".59" stop-color="#f99c1c" stop-opacity=".84"/><stop offset=".81" stop-color="#f99c1c" stop-opacity=".82"/><stop offset=".96" stop-color="#f99c1d" stop-opacity=".77"/><stop offset="1" stop-color="#f99c1e" stop-opacity=".75"/></linearGradient><linearGradient id="linear-gradient-9" x1="147.5" y1="35.86" x2="153.89" y2="35.86" gradientUnits="userSpaceOnUse"><stop offset="0" stop-color="#f99c1c" stop-opacity=".9"/><stop offset=".59" stop-color="#f99c1c" stop-opacity=".89"/><stop offset=".81" stop-color="#f99c1c" stop-opacity=".87"/><stop offset=".96" stop-color="#f99c1d" stop-opacity=".82"/><stop offset="1" stop-color="#f99c1e" stop-opacity=".8"/></linearGradient><linearGradient id="linear-gradient-10" y1="28.91" x2="151.62" y2="28.91" xlink:href="#linear-gradient-9"/><linearGradient id="linear-gradient-11" x1="166.99" y1="29.8" x2="170.53" y2="29.8" gradientUnits="userSpaceOnUse"><stop offset="0" stop-color="#f99c1c" stop-opacity=".7"/><stop offset="1" stop-color="#f99d1e" stop-opacity=".7"/></linearGradient><linearGradient id="linear-gradient-12" x1="165.28" y1="36.63" x2="172.21" y2="36.63" gradientUnits="userSpaceOnUse"><stop offset="0" stop-color="#f99c1c" stop-opacity=".75"/><stop offset=".68" stop-color="#f99c1c" stop-opacity=".74"/><stop offset=".93" stop-color="#f99c1d" stop-opacity=".72"/><stop offset="1" stop-color="#f99d1e" stop-opacity=".7"/></linearGradient></defs><polyline class="cls-2" points="48.74 78.34 64.05 76.95 48.74 78.34"/><polyline class="cls-2" points="48.74 9.92 64.05 11.27 48.74 9.92"/><path class="cls-3" d="m123.15,84.35l31.1-4.01c-3.46-.26-6.28-.52-14.26-.59-8.21-.07-10.8.19-11.4.23-2.47.14-7.83.54-11.72,1.73-3.07.94-4.25,1.8-4.14,2.76.15,1.31,2.8,2.98,6.14,4.49,3.55,1.61,8.39,2.84,14.62,3.69,5.25.72,20.53,1.49,28.63-.01,8.13-1.51,9.6-2.4,10.94-3.86,1.22-1.33.79-2.92-.87-4.27,0,0,19.85-.11,26.62-.35,9.75,3.26,15.42,6.98,15.93,10.68.33,2.42.03,8.16-15.6,12.02-26.35,6.51-55.37,5.53-76.84.91-16.1-3.46-27.14-9.75-29.58-14.08-1.66-2.95-1-4.86-.89-5.26.19-.73,1-2.19,2.75-3.56,2.49-1.95,6.12-2.98,10.66-4.05,7.33-1.73,13.79-2.44,17.82-2.57,4.62-.15,18.71.07,25.51.64l-26.49-1.95,12.9-1.97,37.84,4.91-36.38,8.92-13.29-4.41Z"/><path class="cls-8" d="m94.78,85.98c-3.78-1.1-7.1-1.03-8.88-.69-1.17.22-1.78.52-2.57.97,0,0-4.71,2.91,1.56,7.67,11.51,8.75,27.04-2.96,9.9-7.96Z"/><path class="cls-4" d="m133.79,37.91V14.23L84.09,0l-20.04,5.62v27.67l-15.31,2.07V9.92l-14.71,4.13v61.22l14.71,3.07v-31.21l15.31,4.71v29.69l20.04,4.18,1.33-.31c-.41.07-.83.12-1.26.12-.02,0-.05,0-.07,0-3.88-.04-7.01-3.19-7.01-7.08s3.13-7.04,7.01-7.08c.02,0,.05,0,.07,0,3.91,0,7.08,3.17,7.08,7.08,0,3.23-2.16,5.95-5.12,6.8l36.04-8.36h0l6.18-24.82c-1.59,5.71-6.48,15.12-8.91,18.03-2.4,2.88-6.86,9.54-14.18,10.65-3.94.6-10.65-3.74-13.07-7-2.58-3.48-5.04-8.82-6.18-14.04-1.11-5.06-1.92-10.59-1.92-17.09,0-7.38,2.11-18.6,6.34-24.64,4.23-6.04,10.8-9.62,19.73-9.62,5.09,0,9.59,1.79,13.48,4.23,3.89,2.44,7.2,6.21,9.92,11.32-1.78,1.34-8.01,6.86-8.01,6.86-1.54-2.26-3.59-4.31-5.59-5.53-2.09-1.27-3.46-1.85-7.26-1.61-3.78.25-7.97,4.79-9.18,7.16-1.59,3.09-2.21,6.69-2.43,10.98-.17,3.35-.08,9.75,2.07,13.77,1.52,2.84,3.12,5.01,6.26,6.1,4.12,1.43,7.53-.88,8.95-2.07.34-.29,2.03-1.11,5.26-6.28,2.79-4.47,3.21-6.51,3.84-8.71l-18.96,5.52v-15.13l25.29,2.94Z"/><g><g><path class="cls-4" d="m144.02,20.8c-.26,0-.48-.05-.68-.16-.2-.11-.35-.26-.46-.46-.11-.2-.17-.44-.17-.71v-2.24h.36v2.26c0,.18.04.34.12.49.08.15.19.27.33.35.14.09.31.13.51.13s.36-.04.5-.13c.14-.09.25-.21.33-.35.08-.15.11-.31.11-.49v-2.26h.36v2.26c0,.18.04.34.12.49.08.15.19.27.33.35.14.09.31.13.51.13s.36-.04.5-.13c.14-.09.25-.21.33-.35.08-.15.12-.31.12-.49v-2.26h.36v2.24c0,.27-.06.51-.17.71-.11.2-.27.35-.46.46-.2.11-.42.16-.68.16-.16,0-.32-.03-.47-.08-.15-.05-.29-.13-.4-.24-.11-.11-.2-.24-.26-.41-.06.16-.15.3-.26.41-.12.11-.25.19-.4.24-.15.05-.3.08-.47.08Z"/><path class="cls-4" d="m149.65,20.74c-.27,0-.52-.05-.73-.15s-.38-.25-.51-.44c-.12-.19-.19-.42-.19-.69,0-.25.05-.47.15-.67.1-.2.24-.36.42-.48s.39-.18.64-.18.46.06.64.17c.17.11.3.26.4.45.09.19.13.4.13.63,0,.03,0,.07,0,.11,0,.04,0,.08-.01.1h-1.99c0,.19.06.34.16.47.1.13.22.22.38.28.16.06.32.1.5.1h.64v.3h-.62Zm-1.06-1.41h1.65c0-.07,0-.14-.02-.22-.01-.08-.04-.16-.07-.24-.04-.08-.08-.15-.15-.22s-.14-.12-.24-.16c-.09-.04-.21-.06-.35-.06-.13,0-.24.03-.34.08-.1.05-.19.12-.26.21-.07.09-.12.19-.16.29-.04.11-.06.22-.06.33Z"/><path class="cls-4" d="m153.7,20.8c-.18,0-.34-.03-.5-.09s-.3-.15-.42-.27c-.12-.12-.21-.26-.28-.43-.07-.17-.1-.36-.1-.57,0-.27.06-.51.17-.7.11-.2.26-.35.45-.45.19-.11.4-.16.63-.16.14,0,.27.03.4.08s.24.12.34.21c.1.09.18.19.24.3h0v-1.62h.35v2.38c0,.28-.06.52-.18.72-.12.2-.27.35-.47.46s-.41.16-.65.16Zm0-.31c.17,0,.32-.04.46-.12.14-.08.25-.2.34-.35.08-.15.13-.34.13-.56s-.04-.41-.13-.56-.2-.27-.34-.35c-.14-.08-.3-.12-.47-.12s-.32.04-.46.12c-.14.08-.26.2-.34.36-.09.15-.13.34-.13.55s.04.4.13.56c.09.16.2.27.35.36.15.08.3.12.47.12Z"/><path class="cls-4" d="m156.94,20.8c-.26,0-.48-.06-.68-.18s-.36-.28-.47-.48-.17-.43-.17-.68.06-.48.17-.68.27-.36.47-.48.43-.18.68-.18.48.06.68.18.35.28.47.48c.12.2.17.43.17.68s-.06.48-.17.68-.27.36-.47.48-.43.18-.68.18Zm0-.31c.19,0,.36-.05.51-.14.15-.09.26-.22.34-.37s.12-.33.12-.53-.04-.37-.12-.52c-.08-.16-.2-.28-.34-.37-.15-.09-.32-.14-.51-.14s-.36.05-.5.14c-.14.09-.26.22-.34.37-.08.16-.12.33-.12.52s.04.37.12.53c.08.16.2.28.34.37.15.09.31.14.5.14Z"/><path class="cls-4" d="m160.29,18.62c-.08,0-.14-.03-.19-.08-.05-.05-.07-.12-.07-.19,0-.05,0-.1.01-.14,0-.04.02-.09.04-.15l.23-.82h.3l-.24.87c.06.02.11.05.14.1.03.05.05.1.05.16,0,.07-.03.13-.08.18s-.11.08-.19.08Zm.92,0c-.08,0-.14-.03-.19-.08-.05-.05-.08-.12-.08-.19,0-.05,0-.1.02-.14s.02-.09.04-.15l.23-.82h.3l-.25.87c.06.02.11.05.14.1.03.05.05.1.05.16,0,.07-.03.13-.08.18-.05.05-.11.08-.19.08Z"/><path class="cls-4" d="m163.09,20.8c-.26,0-.49-.06-.68-.18-.2-.12-.36-.28-.47-.48s-.17-.43-.17-.68.06-.48.17-.68.27-.36.47-.48c.2-.12.43-.18.68-.18s.48.06.68.18c.2.12.35.28.47.48.11.2.17.43.17.68s-.06.48-.17.68c-.12.2-.27.36-.47.48-.2.12-.43.18-.68.18Zm0-.31c.19,0,.36-.05.51-.14.15-.09.26-.22.34-.37.08-.16.12-.33.12-.53s-.04-.37-.12-.52c-.08-.16-.2-.28-.34-.37-.15-.09-.32-.14-.51-.14s-.36.05-.5.14c-.15.09-.26.22-.34.37-.08.16-.12.33-.12.52s.04.37.12.53.19.28.34.37c.15.09.31.14.5.14Z"/><path class="cls-4" d="m166.21,20.8c-.21,0-.41-.05-.58-.14-.18-.09-.32-.22-.42-.39s-.16-.37-.16-.6v-1.48h.35v1.47c0,.18.04.33.12.46s.18.22.3.29c.12.07.26.1.39.1s.28-.03.4-.1.23-.16.3-.29c.08-.12.12-.28.12-.45v-1.47h.35v1.48c0,.23-.05.43-.16.6-.11.17-.25.3-.42.39-.18.09-.37.14-.59.14Z"/><path class="cls-4" d="m167.85,18.49v-.3h1.74v.3h-1.74Zm1.17,2.25c-.23,0-.4-.07-.53-.2-.13-.13-.19-.31-.19-.53v-2.47h.35v2.43c0,.15.04.26.11.34.08.08.19.12.33.12h.49v.3h-.56Z"/><path class="cls-4" d="m170.1,20.74v-.3h1.2c.1,0,.19-.02.26-.07.07-.04.12-.1.16-.17.04-.07.06-.14.06-.21s-.02-.14-.05-.2c-.03-.06-.08-.11-.15-.15-.06-.04-.14-.06-.24-.06h-.54c-.16,0-.3-.03-.42-.08-.12-.05-.21-.13-.27-.24-.06-.1-.09-.22-.09-.36,0-.12.03-.24.09-.35.06-.11.14-.19.25-.26.11-.07.24-.1.38-.1h1.16v.3h-1.12c-.13,0-.23.04-.3.12-.07.08-.11.17-.11.27s.04.18.11.26c.07.08.18.11.33.11h.5c.18,0,.33.03.45.09.12.06.21.14.27.25.06.11.09.23.09.38,0,.13-.03.25-.1.37-.07.12-.16.21-.27.29s-.25.11-.4.11h-1.26Z"/><path class="cls-4" d="m172.94,17.73c-.07,0-.12-.03-.18-.08-.05-.05-.07-.11-.07-.17,0-.07.03-.13.07-.18.05-.05.11-.07.18-.07.07,0,.13.02.18.07.05.05.07.11.07.18,0,.07-.02.12-.07.17-.05.05-.11.08-.18.08Zm-.18,3.01v-2.55h.35v2.55h-.35Z"/><path class="cls-4" d="m175.05,20.8c-.18,0-.34-.03-.5-.09s-.3-.15-.42-.27c-.12-.12-.21-.26-.28-.43-.07-.17-.1-.36-.1-.57,0-.27.06-.51.17-.7.11-.2.26-.35.45-.45s.4-.16.63-.16c.14,0,.27.03.4.08.13.05.24.12.34.21.1.09.18.19.23.3h0v-1.62h.35v2.38c0,.28-.06.52-.17.72-.12.2-.27.35-.47.46-.19.1-.41.16-.65.16Zm0-.31c.17,0,.32-.04.46-.12.14-.08.26-.2.34-.35.09-.15.13-.34.13-.56s-.04-.41-.13-.56c-.09-.15-.2-.27-.34-.35-.14-.08-.3-.12-.47-.12s-.32.04-.46.12c-.14.08-.26.2-.34.36-.09.15-.13.34-.13.55s.04.4.13.56c.09.16.2.27.35.36.14.08.3.12.47.12Z"/><path class="cls-4" d="m178.39,20.74c-.27,0-.52-.05-.73-.15-.21-.1-.38-.25-.51-.44-.12-.19-.19-.42-.19-.69,0-.25.05-.47.15-.67.1-.2.24-.36.42-.48s.39-.18.64-.18.46.06.63.17c.17.11.3.26.39.45s.13.4.13.63c0,.03,0,.07,0,.11,0,.04,0,.08-.02.1h-1.98c0,.19.06.34.16.47.1.13.22.22.38.28.15.06.32.1.5.1h.65v.3h-.62Zm-1.06-1.41h1.65c0-.07,0-.14-.02-.22-.01-.08-.04-.16-.07-.24s-.08-.15-.14-.22c-.06-.07-.14-.12-.24-.16-.09-.04-.21-.06-.35-.06-.13,0-.24.03-.35.08-.1.05-.19.12-.26.21s-.12.19-.16.29c-.04.11-.06.22-.06.33Z"/><path class="cls-4" d="m179.78,19.58v-.32h1.42v.32h-1.42Z"/><path class="cls-4" d="m181.47,18.49v-.3h1.74v.3h-1.74Zm1.17,2.25c-.23,0-.4-.07-.53-.2s-.19-.31-.19-.53v-2.47h.35v2.43c0,.15.04.26.11.34.07.08.19.12.33.12h.49v.3h-.56Z"/><path class="cls-4" d="m183.78,20.74v-3.65h.35v1.51c.1-.16.23-.27.39-.35.16-.08.33-.12.51-.12.21,0,.41.05.58.14s.31.22.41.39c.1.17.15.37.15.6v1.49h-.35v-1.47c0-.18-.04-.33-.12-.45-.08-.12-.19-.22-.32-.29-.13-.07-.27-.1-.41-.1s-.28.03-.4.1-.24.16-.32.28c-.08.12-.12.27-.12.45v1.48h-.35Z"/><path class="cls-4" d="m188.24,20.74c-.27,0-.52-.05-.73-.15s-.38-.25-.51-.44c-.12-.19-.19-.42-.19-.69,0-.25.05-.47.15-.67.1-.2.24-.36.42-.48s.39-.18.64-.18.46.06.64.17c.17.11.3.26.4.45.09.19.13.4.13.63,0,.03,0,.07,0,.11,0,.04,0,.08-.01.1h-1.99c0,.19.06.34.16.47.1.13.22.22.38.28.16.06.32.1.5.1h.64v.3h-.62Zm-1.06-1.41h1.65c0-.07,0-.14-.02-.22-.01-.08-.04-.16-.07-.24-.04-.08-.08-.15-.15-.22s-.14-.12-.24-.16c-.09-.04-.21-.06-.35-.06-.13,0-.24.03-.34.08-.1.05-.19.12-.26.21-.07.09-.12.19-.16.29-.04.11-.06.22-.06.33Z"/><path class="cls-4" d="m189.62,19.58v-.32h1.42v.32h-1.42Z"/><path class="cls-4" d="m192.9,20.8c-.23,0-.45-.05-.64-.16s-.35-.25-.47-.46c-.12-.2-.17-.44-.17-.72v-2.38h.35v1.62h0c.06-.11.13-.21.24-.3.1-.09.21-.16.34-.21.13-.05.26-.08.4-.08.23,0,.44.05.63.16s.34.26.45.45c.11.19.17.43.17.7,0,.21-.03.4-.1.57-.07.17-.16.31-.28.43-.12.12-.26.21-.41.27-.16.06-.33.09-.51.09Zm0-.31c.17,0,.33-.04.47-.12.14-.08.26-.2.35-.36.09-.15.13-.34.13-.56s-.04-.39-.13-.55c-.09-.16-.2-.27-.34-.36-.14-.08-.3-.12-.46-.12s-.32.04-.46.12c-.14.08-.26.2-.35.35-.09.15-.13.34-.13.56s.04.41.13.56c.08.15.2.27.34.35.14.08.29.12.46.12Z"/><path class="cls-4" d="m196.02,20.8c-.26,0-.49-.06-.69-.18-.2-.12-.36-.28-.47-.48s-.17-.43-.17-.68.06-.48.17-.68.27-.36.47-.48c.2-.12.43-.18.69-.18s.48.06.68.18.36.28.47.48c.11.2.17.43.17.68s-.06.48-.17.68c-.12.2-.27.36-.47.48s-.43.18-.68.18Zm0-.31c.19,0,.36-.05.51-.14.15-.09.26-.22.34-.37s.12-.33.12-.53-.04-.37-.12-.52c-.08-.16-.2-.28-.34-.37-.15-.09-.32-.14-.51-.14s-.36.05-.5.14c-.15.09-.26.22-.34.37-.08.16-.12.33-.12.52s.04.37.12.53c.08.16.19.28.34.37.14.09.31.14.5.14Z"/><path class="cls-4" d="m197.84,20.74l.93-1.21c-.17-.04-.32-.11-.45-.21-.13-.1-.24-.22-.31-.37-.07-.14-.11-.3-.11-.46v-.29h.34v.29c0,.14.04.27.12.39.08.12.18.21.31.28.13.07.26.11.41.13l.83-1.09h.39l-.88,1.14c.18.05.34.12.47.23s.24.23.32.38c.08.15.11.31.11.49v.3h-.35v-.3c0-.15-.04-.29-.11-.41-.07-.12-.17-.22-.3-.3-.13-.08-.28-.12-.45-.13l-.88,1.14h-.4Z"/><path class="cls-4" d="m200.67,18.57l.25-.87c-.06-.02-.11-.05-.14-.1-.03-.05-.05-.1-.05-.15,0-.07.03-.13.08-.18s.12-.08.18-.08c.08,0,.14.03.19.08.05.05.07.12.07.19,0,.05,0,.1-.01.14s-.02.1-.04.15l-.23.81h-.3Zm.9,0l.25-.87c-.06-.02-.11-.05-.14-.1-.03-.05-.05-.1-.05-.15,0-.07.03-.13.08-.18.05-.05.12-.08.19-.08.08,0,.14.03.19.08s.07.12.07.19c0,.05,0,.1-.01.14,0,.04-.02.1-.04.15l-.23.81h-.3Z"/></g><polyline class="cls-1" points="133.8 13.72 210.26 13.72 210.26 23.92"/><g><path class="cls-7" d="m210.37,30.83c-.42-.65-1-1.13-1.75-1.45-.75-.32-1.64-.47-2.67-.47h-2.17c-.22,0-.39-.07-.53-.22-.14-.15-.2-.33-.2-.54,0-.2.07-.37.2-.51.14-.15.31-.22.53-.22h5.98v-3.49h-6.9c-.83,0-1.59.2-2.27.59-.47.27-.85.64-1.19,1.04.48.44.88.94,1.2,1.53.54,1,.81,2.17.81,3.53,0,.26-.01.58-.04.95-.02.36-.06.65-.11.9.62.19,1.28.31,2.01.31h2.27c.14,0,.27.04.39.11.12.07.22.17.3.3.08.13.12.25.12.38,0,.15-.04.28-.11.41-.07.13-.17.23-.28.3-.12.07-.27.11-.45.11h-4.26v-1.88h-8.65c.07.37.23.69.49.95.26.26.58.46.97.58.39.12.83.19,1.32.19h4.55v3.65h6.43c.87,0,1.65-.2,2.34-.61.69-.41,1.25-.95,1.67-1.62.41-.68.62-1.42.62-2.23,0-1.07-.21-1.92-.62-2.57Z"/><path class="cls-11" d="m196.99,29.1c-.06-.22-.16-.43-.3-.62-.14-.19-.3-.36-.46-.49-.17-.13-.37-.24-.61-.32-.24-.08-.51-.12-.81-.12-.37,0-.7.06-.98.17-.28.11-.52.28-.71.49-.19.21-.35.46-.46.73-.11.27-.19.57-.23.89h4.66c0-.27-.03-.51-.09-.73Z"/><path class="cls-9" d="m192.69,23.94h-3.93l-3.03,10.19c-.03.05-.06.1-.09.14s-.08.06-.15.06c-.04,0-.08-.02-.11-.06-.03-.04-.06-.08-.09-.14l-3.05-10.19h-.13s-6.82,0-6.82,0v2.69h-3.17l1.09,2.97h2.09v4.9c0,1.05.3,1.88.91,2.48.6.6,1.44.91,2.5.91h3.41v-3.08l.41,1.16c.23.64.62,1.12,1.15,1.44.53.32,1.14.48,1.82.48s2.35-.02,2.35-.02c0,0,.41-1.25.64-1.88l.42-1.21,3.66-10.5.12-.34Zm-13.16.45c.3-.3.65-.45,1.07-.45s.76.15,1.06.45c.3.3.45.66.45,1.06s-.15.76-.45,1.07c-.05.05-.1.06-.15.1-.27.22-.56.35-.91.35s-.66-.13-.92-.35c-.05-.04-.1-.06-.15-.1-.3-.3-.45-.66-.45-1.07s.15-.76.45-1.06Zm2.57,10.39h0s-3.02.01-3.02.01v-.55s0-.02,0-.03v-4.61h0s0,0,0,0h3.02v5.18s0,0,0,0Z"/><path class="cls-10" d="m137.6,24.83c-2.89,1.47-3.81,4.22-3.81,7.07,0,3.5,2.94,5.98,5.71,5.98h4.19s0-3.83,0-3.83c-7.81,1.43-7.06-7.77,0-6.2v-3.9c-1.95-.03-4.45-.09-6.09.89Z"/><path class="cls-5" d="m162.87,24.78c-.99-.56-2.15-.83-3.49-.83h-3.4s-4.02,0-4.02,0h0s-1.79,0-1.79,0c.98,0,1.88.21,2.68.63.6.31,1.11.72,1.53,1.21.14.17.27.34.39.53.47.74.71,1.59.71,2.56,0,.86-.21,1.65-.62,2.35-.41.7-.95,1.28-1.61,1.73l.94,1.55c.08.12.17.21.27.27.1.06.24.09.41.09h1.14v3.02c.31,0,.64,0,.99,0h4.39s1.34-3.65,1.34-3.65h-2.76c-.49,0-.93-.06-1.32-.19-.39-.12-.71-.32-.97-.58s-.42-.58-.49-.95h6.17l1.92-5.22c-.03-.06-.05-.13-.08-.19-.54-1-1.3-1.77-2.29-2.33Zm-5.9,5.07c.03-.32.11-.61.23-.89.11-.27.27-.52.46-.73.19-.21.43-.37.71-.49.28-.11.61-.17.98-.17.3,0,.57.04.81.12.24.08.44.19.61.32.17.13.32.3.46.49.14.19.24.4.3.62.06.22.09.46.09.73h-4.66Z"/><path class="cls-6" d="m150.92,36.27l-1.41-2.43h-2.01v4.04h6.4c-.66,0-1.26-.15-1.77-.45-.52-.3-.92-.69-1.2-1.17Z"/><path class="cls-13" d="m150.67,30.58c.29-.15.51-.37.69-.66.17-.29.26-.63.26-1.03s-.09-.72-.26-1c-.17-.28-.4-.5-.68-.66-.28-.16-.58-.24-.92-.24h-2.27v3.81h2.27c.32,0,.62-.08.91-.23Z"/><path class="cls-14" d="m169.02,27.41c-.01-.07-.04-.11-.08-.14-.04-.03-.09-.04-.14-.04-.04,0-.08.01-.11.04-.03.03-.06.07-.09.14l-1.61,4.94h3.54l-1.52-4.94Z"/><polygon class="cls-12" points="166.12 35.37 165.28 37.89 172.21 37.89 171.4 35.37 166.12 35.37"/></g></g></svg>