<?xml version="1.0" encoding="UTF-8"?><svg id="Logo_Copy" xmlns="http://www.w3.org/2000/svg" xmlns:xlink="http://www.w3.org/1999/xlink" viewBox="0 0 249.6 151.98"><defs><style>.cls-1{stroke:url(#linear-gradient-3);}.cls-1,.cls-2{fill:none;stroke-miterlimit:10;}.cls-3{letter-spacing:-.02em;}.cls-4{fill:url(#linear-gradient);}.cls-5{letter-spacing:-.03em;}.cls-6,.cls-7{fill:#f0f0f0;}.cls-7{font-family:MuseoModerno-Light, MuseoModerno;font-size:5px;font-variation-settings:'wght' 300;font-weight:300;}.cls-2{stroke:#f0f0f0;stroke-width:.2px;}.cls-8{fill:url(#linear-gradient-8);}.cls-9{fill:url(#linear-gradient-9);}.cls-10{fill:url(#linear-gradient-4);}.cls-11{fill:url(#linear-gradient-2);}.cls-12{fill:url(#linear-gradient-6);}.cls-13{fill:url(#linear-gradient-7);}.cls-14{fill:url(#linear-gradient-5);}.cls-15{fill:url(#linear-gradient-12);}.cls-16{fill:url(#linear-gradient-10);}.cls-17{fill:url(#linear-gradient-11);}</style><linearGradient id="linear-gradient" x1="128.92" y1="-97.89" x2="164.87" y2="-44.99" gradientTransform="translate(1.4 175.57) rotate(4.19)" gradientUnits="userSpaceOnUse"><stop offset="0" stop-color="#f99c1c" stop-opacity=".6"/><stop offset=".14" stop-color="#f99c1c" stop-opacity=".56"/><stop offset=".38" stop-color="#f99c1c" stop-opacity=".46"/><stop offset=".68" stop-color="#f99c1d" stop-opacity=".3"/><stop offset="1" stop-color="#f99d1e" stop-opacity=".1"/></linearGradient><linearGradient id="linear-gradient-2" x1="1138.85" y1="1375.27" x2="1162.29" y2="1402.29" gradientTransform="translate(-922.47 -182.73) rotate(-21.48) scale(.73 .47)" gradientUnits="userSpaceOnUse"><stop offset="0" stop-color="#f99c1c" stop-opacity=".6"/><stop offset=".48" stop-color="#f99c1c" stop-opacity=".59"/><stop offset=".65" stop-color="#f99c1c" stop-opacity=".57"/><stop offset=".77" stop-color="#f99c1c" stop-opacity=".52"/><stop offset=".87" stop-color="#f99c1d" stop-opacity=".45"/><stop offset=".95" stop-color="#f99c1d" stop-opacity=".36"/><stop offset="1" stop-color="#f99d1e" stop-opacity=".3"/></linearGradient><linearGradient id="linear-gradient-3" x1="133.8" y1="40.76" x2="210.76" y2="40.76" gradientUnits="userSpaceOnUse"><stop offset="0" stop-color="#f99c1c"/><stop offset=".43" stop-color="#f99c1c" stop-opacity=".99"/><stop offset=".58" stop-color="#f99c1c" stop-opacity=".97"/><stop offset=".69" stop-color="#f99c1c" stop-opacity=".92"/><stop offset=".78" stop-color="#f99c1c" stop-opacity=".85"/><stop offset=".86" stop-color="#f99c1c" stop-opacity=".76"/><stop offset=".93" stop-color="#f99c1d" stop-opacity=".65"/><stop offset=".99" stop-color="#f99c1d" stop-opacity=".53"/><stop offset="1" stop-color="#f99d1e" stop-opacity=".5"/></linearGradient><linearGradient id="linear-gradient-4" x1="192.61" y1="53.08" x2="210.99" y2="53.08" gradientUnits="userSpaceOnUse"><stop offset="0" stop-color="#f99c1c" stop-opacity=".55"/><stop offset=".59" stop-color="#f99c1c" stop-opacity=".54"/><stop offset=".81" stop-color="#f99c1c" stop-opacity=".52"/><stop offset=".96" stop-color="#f99c1d" stop-opacity=".47"/><stop offset="1" stop-color="#f99d1e" stop-opacity=".45"/></linearGradient><linearGradient id="linear-gradient-5" x1="192.42" y1="50.87" x2="197.08" y2="50.87" gradientUnits="userSpaceOnUse"><stop offset="0" stop-color="#f99c1c" stop-opacity=".55"/><stop offset=".68" stop-color="#f99c1c" stop-opacity=".54"/><stop offset=".93" stop-color="#f99c1d" stop-opacity=".52"/><stop offset="1" stop-color="#f99d1e" stop-opacity=".5"/></linearGradient><linearGradient id="linear-gradient-6" x1="172.12" y1="53.1" x2="192.69" y2="53.1" gradientUnits="userSpaceOnUse"><stop offset="0" stop-color="#f99c1c" stop-opacity=".7"/><stop offset=".55" stop-color="#f99c1c" stop-opacity=".69"/><stop offset=".74" stop-color="#f99c1c" stop-opacity=".67"/><stop offset=".88" stop-color="#f99c1d" stop-opacity=".62"/><stop offset="1" stop-color="#f99c1d" stop-opacity=".55"/><stop offset="1" stop-color="#f99d1e" stop-opacity=".55"/></linearGradient><linearGradient id="linear-gradient-7" x1="133.79" y1="53.09" x2="143.69" y2="53.09" gradientUnits="userSpaceOnUse"><stop offset="0" stop-color="#f99c1c"/><stop offset=".59" stop-color="#f99c1c" stop-opacity=".99"/><stop offset=".81" stop-color="#f99c1c" stop-opacity=".97"/><stop offset=".96" stop-color="#f99c1d" stop-opacity=".92"/><stop offset="1" stop-color="#f99d1e" stop-opacity=".9"/></linearGradient><linearGradient id="linear-gradient-8" x1="150.17" y1="53.1" x2="165.25" y2="53.1" gradientUnits="userSpaceOnUse"><stop offset="0" stop-color="#f99c1c" stop-opacity=".85"/><stop offset=".59" stop-color="#f99c1c" stop-opacity=".84"/><stop offset=".81" stop-color="#f99c1c" stop-opacity=".82"/><stop offset=".96" stop-color="#f99c1d" stop-opacity=".77"/><stop offset="1" stop-color="#f99c1e" stop-opacity=".75"/></linearGradient><linearGradient id="linear-gradient-9" x1="147.5" y1="58.05" x2="153.89" y2="58.05" gradientUnits="userSpaceOnUse"><stop offset="0" stop-color="#f99c1c" stop-opacity=".9"/><stop offset=".59" stop-color="#f99c1c" stop-opacity=".89"/><stop offset=".81" stop-color="#f99c1c" stop-opacity=".87"/><stop offset=".96" stop-color="#f99c1d" stop-opacity=".82"/><stop offset="1" stop-color="#f99c1e" stop-opacity=".8"/></linearGradient><linearGradient id="linear-gradient-10" y1="51.1" x2="151.62" y2="51.1" xlink:href="#linear-gradient-9"/><linearGradient id="linear-gradient-11" x1="166.99" y1="51.98" x2="170.53" y2="51.98" gradientUnits="userSpaceOnUse"><stop offset="0" stop-color="#f99c1c" stop-opacity=".7"/><stop offset="1" stop-color="#f99d1e" stop-opacity=".7"/></linearGradient><linearGradient id="linear-gradient-12" x1="165.28" y1="58.81" x2="172.21" y2="58.81" gradientUnits="userSpaceOnUse"><stop offset="0" stop-color="#f99c1c" stop-opacity=".75"/><stop offset=".68" stop-color="#f99c1c" stop-opacity=".74"/><stop offset=".93" stop-color="#f99c1d" stop-opacity=".72"/><stop offset="1" stop-color="#f99d1e" stop-opacity=".7"/></linearGradient></defs><polyline class="cls-2" points="48.74 100.52 64.05 99.13 48.74 100.52"/><polyline class="cls-2" points="48.74 32.1 64.05 33.46 48.74 32.1"/><path class="cls-4" d="m123.15,106.54l31.1-4.01c-3.46-.26-6.28-.52-14.26-.59-8.21-.07-10.8.19-11.4.23-2.47.14-7.83.54-11.72,1.73-3.07.94-4.25,1.8-4.14,2.76.15,1.31,2.8,2.98,6.14,4.49,3.55,1.61,8.39,2.84,14.62,3.69,5.25.72,20.53,1.49,28.63-.01,8.13-1.51,9.6-2.4,10.94-3.86,1.22-1.33.79-2.92-.87-4.27,0,0,19.85-.11,26.62-.35,9.75,3.26,15.42,6.98,15.93,10.68.33,2.42.03,8.16-15.6,12.02-26.35,6.51-55.37,5.53-76.84.91-16.1-3.46-27.14-9.75-29.58-14.08-1.66-2.95-1-4.86-.89-5.26.19-.73,1-2.19,2.75-3.56,2.49-1.95,6.12-2.98,10.66-4.05,7.33-1.73,13.79-2.44,17.82-2.57,4.62-.15,18.71.07,25.51.64l-26.49-1.95,12.9-1.97,37.84,4.91-36.38,8.92-13.29-4.41Z"/><path class="cls-11" d="m94.78,108.16c-3.78-1.1-7.1-1.03-8.88-.69-1.17.22-1.78.52-2.57.97,0,0-4.71,2.91,1.56,7.67,11.51,8.75,27.04-2.96,9.9-7.96Z"/><path class="cls-6" d="m133.79,60.1v-23.69l-49.7-14.23-20.04,5.62v27.67l-15.31,2.07v-25.44l-14.71,4.13v61.22l14.71,3.07v-31.21l15.31,4.71v29.69l20.04,4.18,1.33-.31c-.41.07-.83.12-1.26.12-.02,0-.05,0-.07,0-3.88-.04-7.01-3.19-7.01-7.08s3.13-7.04,7.01-7.08c.02,0,.05,0,.07,0,3.91,0,7.08,3.17,7.08,7.08,0,3.23-2.16,5.95-5.12,6.8l36.04-8.36h0l6.18-24.82c-1.59,5.71-6.48,15.12-8.91,18.03-2.4,2.88-6.86,9.54-14.18,10.65-3.94.6-10.65-3.74-13.07-7-2.58-3.48-5.04-8.82-6.18-14.04-1.11-5.06-1.92-10.59-1.92-17.09,0-7.38,2.11-18.6,6.34-24.64,4.23-6.04,10.8-9.62,19.73-9.62,5.09,0,9.59,1.79,13.48,4.23,3.89,2.44,7.2,6.21,9.92,11.32-1.78,1.34-8.01,6.86-8.01,6.86-1.54-2.26-3.59-4.31-5.59-5.53-2.09-1.27-3.46-1.85-7.26-1.61-3.78.25-7.97,4.79-9.18,7.16-1.59,3.09-2.21,6.69-2.43,10.98-.17,3.35-.08,9.75,2.07,13.77,1.52,2.84,3.12,5.01,6.26,6.1,4.12,1.43,7.53-.88,8.95-2.07.34-.29,2.03-1.11,5.26-6.28,2.79-4.47,3.21-6.51,3.84-8.71l-18.96,5.52v-15.13l25.29,2.94Z"/><g><text class="cls-7" transform="translate(142.34 42.92)"><tspan x="0" y="0">We do </tspan><tspan class="cls-5" x="17.51" y="0">“</tspan><tspan x="19.18" y="0">outside-the-bo</tspan><tspan class="cls-3" x="55.26" y="0">x</tspan><tspan x="58.15" y="0">”</tspan></text><polyline class="cls-1" points="133.8 35.91 210.26 35.91 210.26 46.11"/><g><path class="cls-10" d="m210.37,53.01c-.42-.65-1-1.13-1.75-1.45-.75-.32-1.64-.47-2.67-.47h-2.17c-.22,0-.39-.07-.53-.22-.14-.15-.2-.33-.2-.54,0-.2.07-.37.2-.51.14-.15.31-.22.53-.22h5.98v-3.49h-6.9c-.83,0-1.59.2-2.27.59-.47.27-.85.64-1.19,1.04.48.44.88.94,1.2,1.53.54,1,.81,2.17.81,3.53,0,.26-.01.58-.04.95-.02.36-.06.65-.11.9.62.19,1.28.31,2.01.31h2.27c.14,0,.27.04.39.11.12.07.22.17.3.3.08.13.12.25.12.38,0,.15-.04.28-.11.41-.07.13-.17.23-.28.3-.12.07-.27.11-.45.11h-4.26v-1.88h-8.65c.07.37.23.69.49.95.26.26.58.46.97.58.39.12.83.19,1.32.19h4.55v3.65h6.43c.87,0,1.65-.2,2.34-.61.69-.41,1.25-.95,1.67-1.62.41-.68.62-1.42.62-2.23,0-1.07-.21-1.92-.62-2.57Z"/><path class="cls-14" d="m196.99,51.28c-.06-.22-.16-.43-.3-.62-.14-.19-.3-.36-.46-.49-.17-.13-.37-.24-.61-.32-.24-.08-.51-.12-.81-.12-.37,0-.7.06-.98.17-.28.11-.52.28-.71.49-.19.21-.35.46-.46.73-.11.27-.19.57-.23.89h4.66c0-.27-.03-.51-.09-.73Z"/><path class="cls-12" d="m192.69,46.13h-3.93l-3.03,10.19c-.03.05-.06.1-.09.14s-.08.06-.15.06c-.04,0-.08-.02-.11-.06-.03-.04-.06-.08-.09-.14l-3.05-10.19h-.13s-6.82,0-6.82,0v2.69h-3.17l1.09,2.97h2.09v4.9c0,1.05.3,1.88.91,2.48.6.6,1.44.91,2.5.91h3.41v-3.08l.41,1.16c.23.64.62,1.12,1.15,1.44.53.32,1.14.48,1.82.48s2.35-.02,2.35-.02c0,0,.41-1.25.64-1.88l.42-1.21,3.66-10.5.12-.34Zm-13.16.45c.3-.3.65-.45,1.07-.45s.76.15,1.06.45c.3.3.45.66.45,1.06s-.15.76-.45,1.07c-.05.05-.1.06-.15.1-.27.22-.56.35-.91.35s-.66-.13-.92-.35c-.05-.04-.1-.06-.15-.1-.3-.3-.45-.66-.45-1.07s.15-.76.45-1.06Zm2.57,10.39h0s-3.02.01-3.02.01v-.55s0-.02,0-.03v-4.61h0s0,0,0,0h3.02v5.18s0,0,0,0Z"/><path class="cls-13" d="m137.6,47.02c-2.89,1.47-3.81,4.22-3.81,7.07,0,3.5,2.94,5.98,5.71,5.98h4.19s0-3.83,0-3.83c-7.81,1.43-7.06-7.77,0-6.2v-3.9c-1.95-.03-4.45-.09-6.09.89Z"/><path class="cls-8" d="m162.87,46.96c-.99-.56-2.15-.83-3.49-.83h-3.4s-4.02,0-4.02,0h0s-1.79,0-1.79,0c.98,0,1.88.21,2.68.63.6.31,1.11.72,1.53,1.21.14.17.27.34.39.53.47.74.71,1.59.71,2.56,0,.86-.21,1.65-.62,2.35-.41.7-.95,1.28-1.61,1.73l.94,1.55c.08.12.17.21.27.27.1.06.24.09.41.09h1.14v3.02c.31,0,.64,0,.99,0h4.39s1.34-3.65,1.34-3.65h-2.76c-.49,0-.93-.06-1.32-.19-.39-.12-.71-.32-.97-.58s-.42-.58-.49-.95h6.17l1.92-5.22c-.03-.06-.05-.13-.08-.19-.54-1-1.3-1.77-2.29-2.33Zm-5.9,5.07c.03-.32.11-.61.23-.89.11-.27.27-.52.46-.73.19-.21.43-.37.71-.49.28-.11.61-.17.98-.17.3,0,.57.04.81.12.24.08.44.19.61.32.17.13.32.3.46.49.14.19.24.4.3.62.06.22.09.46.09.73h-4.66Z"/><path class="cls-9" d="m150.92,58.46l-1.41-2.43h-2.01v4.04h6.4c-.66,0-1.26-.15-1.77-.45-.52-.3-.92-.69-1.2-1.17Z"/><path class="cls-16" d="m150.67,52.77c.29-.15.51-.37.69-.66.17-.29.26-.63.26-1.03s-.09-.72-.26-1c-.17-.28-.4-.5-.68-.66-.28-.16-.58-.24-.92-.24h-2.27v3.81h2.27c.32,0,.62-.08.91-.23Z"/><path class="cls-17" d="m169.02,49.6c-.01-.07-.04-.11-.08-.14-.04-.03-.09-.04-.14-.04-.04,0-.08.01-.11.04-.03.03-.06.07-.09.14l-1.61,4.94h3.54l-1.52-4.94Z"/><polygon class="cls-15" points="166.12 57.55 165.28 60.07 172.21 60.07 171.4 57.55 166.12 57.55"/></g></g></svg>